<?xml version="1.0" encoding="UTF-8"?>
<svg version="1.1" xmlns="http://www.w3.org/2000/svg" width="240" height="240">
<path d="M0 0 C56.1 0 112.2 0 170 0 C170 13.5 170 13.5 169.46850586 19.44134521 C169.38275126 20.42452677 169.38275126 20.42452677 169.29526424 21.42757058 C169.10677114 23.57425887 168.9108604 25.72019769 168.71484375 27.86621094 C168.57646059 29.42457117 168.43854471 30.98297296 168.30105591 32.54141235 C167.9297559 36.73521457 167.55199342 40.92841151 167.17299271 45.12152386 C166.77679993 49.51738297 166.38665746 53.9137791 165.99584961 58.31011963 C165.25635399 66.61868874 164.51148512 74.92676683 163.76464367 83.23467851 C162.91402879 92.69994074 162.06946771 102.16574013 161.2253933 111.63158751 C159.49029041 131.08832665 157.74765589 150.54438459 156 170 C151.30009434 171.79684643 146.63338784 173.48327046 141.80273438 174.90112305 C140.64793579 175.24124924 139.49313721 175.58137543 138.30334473 175.93180847 C137.07917847 176.28817886 135.85501221 176.64454926 134.59375 177.01171875 C133.9601506 177.19652109 133.32655121 177.38132343 132.67375183 177.57172585 C129.32632993 178.54787014 125.97784589 179.52026423 122.62841797 180.48950195 C119.18959699 181.48540292 115.75468489 182.49415017 112.32048798 183.50586224 C109.65782327 184.28772525 106.99244002 185.05998167 104.32624817 185.82972145 C102.44772941 186.37468545 100.5721494 186.92974718 98.69665527 187.48503113 C86.22386827 191.05653952 78.00812254 189.47573033 65.81640625 185.87890625 C64.35074138 185.45448089 62.88483021 185.03090527 61.41868591 184.60813904 C58.36159406 183.72429986 55.30662291 182.83359761 52.25317383 181.93725586 C48.33275593 180.78650831 44.40890688 179.64805208 40.48362827 178.51400852 C36.73914131 177.43158807 32.9964838 176.34290647 29.25390625 175.25390625 C28.1798714 174.94232669 28.1798714 174.94232669 27.08413887 174.62445259 C25.07010981 174.03900327 23.05744816 173.44908772 21.04516602 172.85766602 C19.89903336 172.52235367 18.7529007 172.18704132 17.57203674 171.84156799 C15 171 15 171 14 170 C13.73188561 167.99354405 13.5278609 165.9785103 13.34825134 163.96220398 C13.22907852 162.64873489 13.1099057 161.33526581 12.98712158 159.98199463 C12.85842886 158.51233712 12.72983101 157.04267131 12.60131836 155.57299805 C12.46361559 154.03565676 12.32552983 152.49834974 12.18708801 150.96107483 C11.81097068 146.77075314 11.44064416 142.57993799 11.07159877 138.38898826 C10.76277822 134.88807245 10.45112348 131.38741141 10.13945013 127.88674861 C9.40327201 119.61780851 8.67171199 111.34846874 7.94311523 103.07885742 C7.19296357 94.56536744 6.43575467 86.05252697 5.67487997 77.53998917 C5.02131242 70.22553341 4.37188827 62.91071793 3.72579104 55.59559852 C3.340176 51.22991119 2.95310563 46.86436631 2.56217766 42.49915123 C2.19379186 38.3833205 1.83063566 34.26705962 1.47132683 30.15042686 C1.33931514 28.64756343 1.20554777 27.1448529 1.06979752 25.64232254 C0.88318309 23.57348765 0.70323876 21.50416708 0.52476501 19.43461609 C0.42282302 18.28183009 0.32088102 17.12904409 0.21584988 15.94132519 C-0.07475453 10.63501467 0 5.31426215 0 0 Z " fill="#E65100" transform="translate(35,25)"/>
<path d="M0 0 C22.44 0 44.88 0 68 0 C67.40876089 11.82478222 66.81654917 23.62943346 66 35.4375 C65.9175 36.68853516 65.835 37.93957031 65.75 39.22851562 C65.6675 40.43056641 65.585 41.63261719 65.5 42.87109375 C65.4278125 43.93255615 65.355625 44.99401855 65.28125 46.08764648 C65.02036041 48.78916721 64.54057071 51.34374736 64 54 C63.82798475 55.69524227 63.6865637 57.39377316 63.5703125 59.09375 C63.49868896 60.10679199 63.42706543 61.11983398 63.35327148 62.16357422 C63.27794189 63.26459473 63.2026123 64.36561523 63.125 65.5 C62.34174686 76.465544 61.51458433 87.42667609 60.63641357 98.38500977 C60.50425408 100.03937571 60.37326453 101.69383556 60.24346924 103.34838867 C60.05975917 105.68823133 59.87217236 108.02773282 59.68359375 110.3671875 C59.6294783 111.06508392 59.57536285 111.76298035 59.51960754 112.48202515 C59.22662737 116.05762181 58.73550946 119.49187603 58 123 C57.79860394 124.69142906 57.62093668 126.38582146 57.46484375 128.08203125 C57.37783203 129.01337891 57.29082031 129.94472656 57.20117188 130.90429688 C57.11416016 131.86400391 57.02714844 132.82371094 56.9375 133.8125 C56.84662109 134.79154297 56.75574219 135.77058594 56.66210938 136.77929688 C56.43904995 139.18599071 56.21842428 141.59288182 56 144 C55.36312256 144.17539307 54.72624512 144.35078613 54.07006836 144.53149414 C51.02501165 145.37206376 47.9810686 146.21655747 44.9375 147.0625 C43.81674072 147.37396973 42.69598145 147.68543945 41.54125977 148.00634766 C32.84912623 150.44031585 24.21266737 153.02820528 15.61499023 155.77758789 C14.73012939 156.05465576 13.84526855 156.33172363 12.93359375 156.6171875 C11.7897522 156.98239502 11.7897522 156.98239502 10.62280273 157.35498047 C7.14333789 158.21067684 3.5554705 158.55556619 0 159 C-0.33 151.41 -0.66 143.82 -1 136 C-3.73152344 135.07316406 -6.46304688 134.14632812 -9.27734375 133.19140625 C-11.91194367 132.29522134 -14.54619773 131.39802691 -17.18041992 130.50073242 C-19.01632303 129.87597588 -20.85258582 129.25227527 -22.68920898 128.62963867 C-25.32369956 127.73631397 -27.95688816 126.83924343 -30.58984375 125.94140625 C-31.41588608 125.6622084 -32.24192841 125.38301056 -33.09300232 125.09535217 C-38.88612829 123.11387171 -38.88612829 123.11387171 -40 122 C-40.15825258 120.00217874 -40.25119171 117.99911166 -40.31640625 115.99609375 C-40.37924805 114.17368164 -40.37924805 114.17368164 -40.44335938 112.31445312 C-40.48267578 111.03505859 -40.52199219 109.75566406 -40.5625 108.4375 C-40.60568359 107.15423828 -40.64886719 105.87097656 -40.69335938 104.54882812 C-40.79984719 101.36602555 -40.90046421 98.18302757 -41 95 C-34.4 95 -27.8 95 -21 95 C-20.505 100.94 -20.505 100.94 -20 107 C-17.29559485 108.01189324 -14.58729099 109.00965691 -11.875 110 C-11.11445312 110.28617187 -10.35390625 110.57234375 -9.5703125 110.8671875 C-1.40917331 113.82208272 3.88731331 113.00553635 11.875 110 C12.65875 109.71382813 13.4425 109.42765625 14.25 109.1328125 C16.16982146 108.4304388 18.08536436 107.71638928 20 107 C20.06058594 105.83082031 20.12117188 104.66164063 20.18359375 103.45703125 C20.26804034 101.90884386 20.35268625 100.36066732 20.4375 98.8125 C20.47681641 98.04357422 20.51613281 97.27464844 20.55664062 96.48242188 C20.59853516 95.73154297 20.64042969 94.98066406 20.68359375 94.20703125 C20.72025146 93.5210083 20.75690918 92.83498535 20.79467773 92.12817383 C21.026095 89.72952425 21.52740187 87.36299064 22 85 C0.88 85 -20.24 85 -42 85 C-43.12529038 78.2482577 -43.12529038 78.2482577 -43.29711914 74.86914062 C-43.33708511 74.11395142 -43.37705109 73.35876221 -43.41822815 72.58068848 C-43.45681442 71.78062378 -43.4954007 70.98055908 -43.53515625 70.15625 C-43.57813339 69.31010132 -43.62111053 68.46395264 -43.66539001 67.59216309 C-43.75528735 65.80371503 -43.84343249 64.01517813 -43.92993164 62.2265625 C-44.06074134 59.53617074 -44.19889845 56.84622994 -44.33789062 54.15625 C-44.42492621 52.40627218 -44.5115278 50.6562727 -44.59765625 48.90625 C-44.63826675 48.12237915 -44.67887726 47.3385083 -44.72071838 46.53088379 C-45.06034139 39.33130335 -45 32.23695261 -45 25 C-30.15 25 -15.3 25 0 25 C0 16.75 0 8.5 0 0 Z " fill="#FE6D01" transform="translate(120,40)"/>
<path d="M0 0 C30.03 0 60.06 0 91 0 C90.67 6.6 90.34 13.2 90 20 C67.23 20 44.46 20 21 20 C21.33 26.6 21.66 33.2 22 40 C43.78 40 65.56 40 88 40 C87.01 58.81 86.02 77.62 85 97 C77.17665155 100.12933938 69.39577606 103.07450032 61.4375 105.8125 C59.68663086 106.44188477 59.68663086 106.44188477 57.90039062 107.08398438 C45.09418384 111.46334636 36.69295858 108.53342517 24.27685547 104.27978516 C21.98065857 103.49337588 19.68030473 102.72025805 17.37890625 101.94921875 C15.91901593 101.45648377 14.45937099 100.96302101 13 100.46875 C12.31156006 100.23643677 11.62312012 100.00412354 10.91381836 99.76477051 C6.11727972 98.11727972 6.11727972 98.11727972 5 97 C4.84174742 95.00217874 4.74880829 92.99911166 4.68359375 90.99609375 C4.62075195 89.17368164 4.62075195 89.17368164 4.55664062 87.31445312 C4.51732422 86.03505859 4.47800781 84.75566406 4.4375 83.4375 C4.39431641 82.15423828 4.35113281 80.87097656 4.30664062 79.54882812 C4.20015281 76.36602555 4.09953579 73.18302757 4 70 C10.6 70 17.2 70 24 70 C24.495 75.94 24.495 75.94 25 82 C27.70440515 83.01189324 30.41270901 84.00965691 33.125 85 C33.88554688 85.28617187 34.64609375 85.57234375 35.4296875 85.8671875 C43.59082669 88.82208272 48.88731331 88.00553635 56.875 85 C57.65875 84.71382813 58.4425 84.42765625 59.25 84.1328125 C61.16982146 83.4304388 63.08536436 82.71638928 65 82 C65.06058594 80.83082031 65.12117188 79.66164063 65.18359375 78.45703125 C65.26804034 76.90884386 65.35268625 75.36066732 65.4375 73.8125 C65.47681641 73.04357422 65.51613281 72.27464844 65.55664062 71.48242188 C65.59853516 70.73154297 65.64042969 69.98066406 65.68359375 69.20703125 C65.72025146 68.5210083 65.75690918 67.83498535 65.79467773 67.12817383 C66.026095 64.72952425 66.52740187 62.36299064 67 60 C45.88 60 24.76 60 3 60 C1.87470962 53.2482577 1.87470962 53.2482577 1.70288086 49.86914062 C1.66291489 49.11395142 1.62294891 48.35876221 1.58177185 47.58068848 C1.54318558 46.78062378 1.5045993 45.98055908 1.46484375 45.15625 C1.42186661 44.31010132 1.37888947 43.46395264 1.33460999 42.59216309 C1.24471265 40.80371503 1.15656751 39.01517813 1.07006836 37.2265625 C0.93925866 34.53617074 0.80110155 31.84622994 0.66210938 29.15625 C0.57507379 27.40627218 0.4884722 25.6562727 0.40234375 23.90625 C0.36173325 23.12237915 0.32112274 22.3385083 0.27928162 21.53088379 C-0.06034139 14.33130335 0 7.23695261 0 0 Z " fill="#F6F5F4" transform="translate(75,65)"/>
<path d="M0 0 C6.6 0 13.2 0 20 0 C20.33 3.96 20.66 7.92 21 12 C31.395 15.465 31.395 15.465 42 19 C41.67 25.93 41.34 32.86 41 40 C34.78510085 38.75702017 29.55285049 37.68268948 23.71484375 35.65234375 C23.0876796 35.43558487 22.46051544 35.21882599 21.81434631 34.99549866 C20.51195924 34.54394247 19.21063728 34.08930252 17.91040039 33.6315918 C15.91218133 32.92859257 13.91054994 32.23606627 11.90820312 31.54492188 C2.151371 28.151371 2.151371 28.151371 1 27 C0.84174742 25.00217874 0.74880829 22.99911166 0.68359375 20.99609375 C0.64169922 19.78115234 0.59980469 18.56621094 0.55664062 17.31445312 C0.51732422 16.03505859 0.47800781 14.75566406 0.4375 13.4375 C0.39431641 12.15423828 0.35113281 10.87097656 0.30664062 9.54882812 C0.20015281 6.36602555 0.09953579 3.18302757 0 0 Z " fill="#EDEBEA" transform="translate(79,135)"/>
<path d="M0 0 C15.18 0 30.36 0 46 0 C45.67 6.6 45.34 13.2 45 20 C30.15 20 15.3 20 0 20 C0 13.4 0 6.8 0 0 Z " fill="#FFFEFE" transform="translate(120,65)"/>
<path d="M0 0 C7.26 0 14.52 0 22 0 C21.67 7.26 21.34 14.52 21 22 C3.5 29 3.5 29 0 29 C0 19.43 0 9.86 0 0 Z " fill="#FF6D01" transform="translate(120,125)"/>
<path d="M0 0 C7.92 0 15.84 0 24 0 C24 6.6 24 13.2 24 20 C16.41 20 8.82 20 1 20 C0 12 0 12 0 0 Z " fill="#E65100" transform="translate(96,85)"/>
</svg>
