{
	"asset":{
		"generator":"Khronos glTF Blender I/O v4.1.63",
		"version":"2.0"
	},
	"scene":0,
	"scenes":[
		{
			"name":"Scene",
			"nodes":[
				0,
				1,
				2,
				3,
				4
			]
		}
	],
	"nodes":[
		{
			"mesh":0,
			"name":"resume1",
			"rotation":[
				0.7071068286895752,
				0,
				0,
				0.7071068286895752
			],
			"translation":[
				0,
				-2.448657989501953,
				0.26092225313186646
			]
		},
		{
			"mesh":1,
			"name":"person_bg",
			"rotation":[
				0.7071068286895752,
				0,
				0,
				0.7071068286895752
			],
			"translation":[
				0,
				-2.448657989501953,
				0.26092225313186646
			]
		},
		{
			"mesh":2,
			"name":"person",
			"rotation":[
				0.7071068286895752,
				0,
				0,
				0.7071068286895752
			],
			"translation":[
				0,
				-2.448657989501953,
				0.26092225313186646
			]
		},
		{
			"mesh":3,
			"name":"paper_lines",
			"rotation":[
				0.7071068286895752,
				0,
				0,
				0.7071068286895752
			],
			"translation":[
				0,
				-2.448657989501953,
				0.26092225313186646
			]
		},
		{
			"mesh":4,
			"name":"paper",
			"rotation":[
				0.7071068286895752,
				0,
				0,
				0.7071068286895752
			],
			"translation":[
				0,
				-2.448657989501953,
				0.26092225313186646
			]
		}
	],
	"materials":[
		{
			"doubleSided":true,
			"name":"Material.005",
			"pbrMetallicRoughness":{
				"baseColorFactor":[
					0.9386807084083557,
					0.3662530183792114,
					0,
					1
				],
				"metallicFactor":0,
				"roughnessFactor":0.5
			}
		},
		{
			"doubleSided":true,
			"name":"Material.003",
			"pbrMetallicRoughness":{
				"baseColorFactor":[
					0.03189544379711151,
					0.11193234473466873,
					0.539479672908783,
					1
				],
				"metallicFactor":0,
				"roughnessFactor":0.5
			}
		},
		{
			"doubleSided":true,
			"name":"Material.004",
			"pbrMetallicRoughness":{
				"metallicFactor":0,
				"roughnessFactor":0.5
			}
		},
		{
			"doubleSided":true,
			"name":"Material.002",
			"pbrMetallicRoughness":{
				"baseColorFactor":[
					0.07227138429880142,
					0.0722719207406044,
					0.07227188348770142,
					1
				],
				"metallicFactor":0,
				"roughnessFactor":0.5
			}
		},
		{
			"doubleSided":true,
			"name":"Material.001",
			"pbrMetallicRoughness":{
				"baseColorFactor":[
					0.7835327386856079,
					0.7835385203361511,
					0.7835381627082825,
					1
				],
				"metallicFactor":0,
				"roughnessFactor":0.5
			}
		}
	],
	"meshes":[
		{
			"name":"resume1",
			"primitives":[
				{
					"attributes":{
						"POSITION":0,
						"NORMAL":1
					},
					"indices":2,
					"material":0
				}
			]
		},
		{
			"name":"resume1.001",
			"primitives":[
				{
					"attributes":{
						"POSITION":3,
						"NORMAL":4
					},
					"indices":5,
					"material":1
				}
			]
		},
		{
			"name":"resume1.002",
			"primitives":[
				{
					"attributes":{
						"POSITION":6,
						"NORMAL":7
					},
					"indices":8,
					"material":2
				}
			]
		},
		{
			"name":"resume1.003",
			"primitives":[
				{
					"attributes":{
						"POSITION":9,
						"NORMAL":10
					},
					"indices":11,
					"material":3
				}
			]
		},
		{
			"name":"resume1.004",
			"primitives":[
				{
					"attributes":{
						"POSITION":12,
						"NORMAL":13
					},
					"indices":14,
					"material":4
				}
			]
		}
	],
	"accessors":[
		{
			"bufferView":0,
			"componentType":5126,
			"count":2080,
			"max":[
				1.5297820568084717,
				0.007919000461697578,
				-1.1116269826889038
			],
			"min":[
				-1.5297820568084717,
				-0.7461199760437012,
				-2.730118989944458
			],
			"type":"VEC3"
		},
		{
			"bufferView":1,
			"componentType":5126,
			"count":2080,
			"type":"VEC3"
		},
		{
			"bufferView":2,
			"componentType":5123,
			"count":12468,
			"type":"SCALAR"
		},
		{
			"bufferView":3,
			"componentType":5126,
			"count":24834,
			"max":[
				0.8915740251541138,
				0.4521380066871643,
				-1.451066017150879
			],
			"min":[
				-0.8621829748153687,
				0.024312999099493027,
				-3.2048230171203613
			],
			"type":"VEC3"
		},
		{
			"bufferView":4,
			"componentType":5126,
			"count":24834,
			"type":"VEC3"
		},
		{
			"bufferView":5,
			"componentType":5123,
			"count":148992,
			"type":"SCALAR"
		},
		{
			"bufferView":6,
			"componentType":5126,
			"count":8100,
			"max":[
				0.3835259974002838,
				0.6728100180625916,
				-1.8506790399551392
			],
			"min":[
				-0.3734489977359772,
				0.13573800027370453,
				-2.886122941970825
			],
			"type":"VEC3"
		},
		{
			"bufferView":7,
			"componentType":5126,
			"count":8100,
			"type":"VEC3"
		},
		{
			"bufferView":8,
			"componentType":5123,
			"count":48576,
			"type":"SCALAR"
		},
		{
			"bufferView":9,
			"componentType":5126,
			"count":9836,
			"max":[
				0.9734190106391907,
				-0.16894300282001495,
				-3.1954779624938965
			],
			"min":[
				-0.8604220151901245,
				-0.36829400062561035,
				-4.17379903793335
			],
			"type":"VEC3"
		},
		{
			"bufferView":10,
			"componentType":5126,
			"count":9836,
			"type":"VEC3"
		},
		{
			"bufferView":11,
			"componentType":5123,
			"count":15516,
			"type":"SCALAR"
		},
		{
			"bufferView":12,
			"componentType":5126,
			"count":1352,
			"max":[
				1.370223045349121,
				-0.25436899065971375,
				-1.5442689657211304
			],
			"min":[
				-1.2925670146942139,
				-0.5243250131607056,
				-4.766668796539307
			],
			"type":"VEC3"
		},
		{
			"bufferView":13,
			"componentType":5126,
			"count":1352,
			"type":"VEC3"
		},
		{
			"bufferView":14,
			"componentType":5123,
			"count":8100,
			"type":"SCALAR"
		}
	],
	"bufferViews":[
		{
			"buffer":0,
			"byteLength":24960,
			"byteOffset":0,
			"target":34962
		},
		{
			"buffer":0,
			"byteLength":24960,
			"byteOffset":24960,
			"target":34962
		},
		{
			"buffer":0,
			"byteLength":24936,
			"byteOffset":49920,
			"target":34963
		},
		{
			"buffer":0,
			"byteLength":298008,
			"byteOffset":74856,
			"target":34962
		},
		{
			"buffer":0,
			"byteLength":298008,
			"byteOffset":372864,
			"target":34962
		},
		{
			"buffer":0,
			"byteLength":297984,
			"byteOffset":670872,
			"target":34963
		},
		{
			"buffer":0,
			"byteLength":97200,
			"byteOffset":968856,
			"target":34962
		},
		{
			"buffer":0,
			"byteLength":97200,
			"byteOffset":1066056,
			"target":34962
		},
		{
			"buffer":0,
			"byteLength":97152,
			"byteOffset":1163256,
			"target":34963
		},
		{
			"buffer":0,
			"byteLength":118032,
			"byteOffset":1260408,
			"target":34962
		},
		{
			"buffer":0,
			"byteLength":118032,
			"byteOffset":1378440,
			"target":34962
		},
		{
			"buffer":0,
			"byteLength":31032,
			"byteOffset":1496472,
			"target":34963
		},
		{
			"buffer":0,
			"byteLength":16224,
			"byteOffset":1527504,
			"target":34962
		},
		{
			"buffer":0,
			"byteLength":16224,
			"byteOffset":1543728,
			"target":34962
		},
		{
			"buffer":0,
			"byteLength":16200,
			"byteOffset":1559952,
			"target":34963
		}
	],
	"buffers":[
		{
			"byteLength":1576152,
			"uri":"resume1.bin"
		}
	]
}
