{
	"asset":{
		"generator":"Khronos glTF Blender I/O v4.1.63",
		"version":"2.0"
	},
	"extensionsUsed":[
		"KHR_materials_specular",
		"KHR_materials_ior"
	],
	"scene":0,
	"scenes":[
		{
			"name":"Front",
			"nodes":[
				0
			]
		},
		{
			"name":"isometric",
			"nodes":[
				1
			]
		},
		{
			"name":"Random",
			"nodes":[
				2
			]
		}
	],
	"nodes":[
		{
			"mesh":0,
			"name":"Curve",
			"rotation":[
				0.7071068286895752,
				0,
				0,
				0.7071068286895752
			],
			"scale":[
				4.821023464202881,
				4.821023464202881,
				4.821023464202881
			],
			"translation":[
				0.10945694148540497,
				0.13806165754795074,
				0
			]
		},
		{
			"mesh":1,
			"name":"Curve.001",
			"rotation":[
				0.7071068286895752,
				0,
				0,
				0.7071068286895752
			],
			"scale":[
				5.0735015869140625,
				5.0735015869140625,
				5.0735015869140625
			],
			"translation":[
				0.11518922448158264,
				0.14529196918010712,
				0
			]
		},
		{
			"mesh":2,
			"name":"Curve.002",
			"rotation":[
				0.5210813283920288,
				-0.003012662520632148,
				0.15609383583068848,
				0.8391067385673523
			],
			"scale":[
				4.821023464202881,
				4.821023464202881,
				4.821023464202881
			],
			"translation":[
				0.08209389448165894,
				0.21102946996688843,
				0
			]
		}
	],
	"materials":[
		{
			"doubleSided":true,
			"extensions":{
				"KHR_materials_specular":{
					"specularColorFactor":[
						2.0,
						2.0,
						2.0
					]
				},
				"KHR_materials_ior":{
					"ior":1.4500000476837158
				}
			},
			"name":"Purple",
			"pbrMetallicRoughness":{
				"baseColorFactor":[
					0.0012138803722336888,
					0.18782101571559906,
					0.09530755877494812,
					1
				],
				"metallicFactor":0,
				"roughnessFactor":0
			}
		}
	],
	"meshes":[
		{
			"name":"Curve",
			"primitives":[
				{
					"attributes":{
						"POSITION":0,
						"NORMAL":1,
						"TEXCOORD_0":2
					},
					"indices":3,
					"material":0
				}
			]
		},
		{
			"name":"Curve.001",
			"primitives":[
				{
					"attributes":{
						"POSITION":4,
						"NORMAL":5,
						"TEXCOORD_0":6
					},
					"indices":7,
					"material":0
				}
			]
		},
		{
			"name":"Curve.002",
			"primitives":[
				{
					"attributes":{
						"POSITION":8,
						"NORMAL":9,
						"TEXCOORD_0":10
					},
					"indices":11,
					"material":0
				}
			]
		}
	],
	"accessors":[
		{
			"bufferView":0,
			"componentType":5126,
			"count":50950,
			"max":[
				0.13835163414478302,
				0.019999999552965164,
				0.20143400132656097
			],
			"min":[
				-0.17056749761104584,
				-0.019999999552965164,
				-0.15750561654567719
			],
			"type":"VEC3"
		},
		{
			"bufferView":1,
			"componentType":5126,
			"count":50950,
			"type":"VEC3"
		},
		{
			"bufferView":2,
			"componentType":5126,
			"count":50950,
			"type":"VEC2"
		},
		{
			"bufferView":3,
			"componentType":5123,
			"count":292332,
			"type":"SCALAR"
		},
		{
			"bufferView":4,
			"componentType":5126,
			"count":50932,
			"max":[
				0.13785162568092346,
				0.013500000350177288,
				0.20093399286270142
			],
			"min":[
				-0.17006748914718628,
				-0.013500000350177288,
				-0.15700560808181763
			],
			"type":"VEC3"
		},
		{
			"bufferView":5,
			"componentType":5126,
			"count":50932,
			"type":"VEC3"
		},
		{
			"bufferView":6,
			"componentType":5126,
			"count":50932,
			"type":"VEC2"
		},
		{
			"bufferView":7,
			"componentType":5123,
			"count":292332,
			"type":"SCALAR"
		},
		{
			"bufferView":8,
			"componentType":5126,
			"count":50954,
			"max":[
				0.13835163414478302,
				0.016999999061226845,
				0.20143400132656097
			],
			"min":[
				-0.17056749761104584,
				-0.016999999061226845,
				-0.15750561654567719
			],
			"type":"VEC3"
		},
		{
			"bufferView":9,
			"componentType":5126,
			"count":50954,
			"type":"VEC3"
		},
		{
			"bufferView":10,
			"componentType":5126,
			"count":50954,
			"type":"VEC2"
		},
		{
			"bufferView":11,
			"componentType":5123,
			"count":292332,
			"type":"SCALAR"
		}
	],
	"bufferViews":[
		{
			"buffer":0,
			"byteLength":611400,
			"byteOffset":0,
			"target":34962
		},
		{
			"buffer":0,
			"byteLength":611400,
			"byteOffset":611400,
			"target":34962
		},
		{
			"buffer":0,
			"byteLength":407600,
			"byteOffset":1222800,
			"target":34962
		},
		{
			"buffer":0,
			"byteLength":584664,
			"byteOffset":1630400,
			"target":34963
		},
		{
			"buffer":0,
			"byteLength":611184,
			"byteOffset":2215064,
			"target":34962
		},
		{
			"buffer":0,
			"byteLength":611184,
			"byteOffset":2826248,
			"target":34962
		},
		{
			"buffer":0,
			"byteLength":407456,
			"byteOffset":3437432,
			"target":34962
		},
		{
			"buffer":0,
			"byteLength":584664,
			"byteOffset":3844888,
			"target":34963
		},
		{
			"buffer":0,
			"byteLength":611448,
			"byteOffset":4429552,
			"target":34962
		},
		{
			"buffer":0,
			"byteLength":611448,
			"byteOffset":5041000,
			"target":34962
		},
		{
			"buffer":0,
			"byteLength":407632,
			"byteOffset":5652448,
			"target":34962
		},
		{
			"buffer":0,
			"byteLength":584664,
			"byteOffset":6060080,
			"target":34963
		}
	],
	"buffers":[
		{
			"byteLength":6644744,
			"uri":"resume.bin"
		}
	]
}
