<svg version="1.1" id="Layer_1" xmlns="http://www.w3.org/2000/svg" xmlns:xlink="http://www.w3.org/1999/xlink" x="0px" y="0px"
	 width="100%" viewBox="0 0 2000 1991" enable-background="new 0 0 2000 1991" xml:space="preserve">
<path fill="#4C6971" opacity="1.000000" stroke="none" 
	d="
M1.000000,697.000000 
	C1.000000,464.666656 1.000000,232.833328 1.000000,1.000000 
	C667.666687,1.000000 1334.333374,1.000000 2001.000000,1.000000 
	C2001.000000,664.666687 2001.000000,1328.333374 2001.000000,1992.000000 
	C1334.333374,1992.000000 667.666687,1992.000000 1.000000,1992.000000 
	C1.000000,1560.500000 1.000000,1129.000000 1.000000,697.000000 
M71.009209,776.548462 
	C72.013840,781.856445 72.686951,787.253967 74.091873,792.453796 
	C77.047752,803.393982 79.575157,814.651428 88.946899,822.426392 
	C94.145844,826.739624 100.318764,830.237671 104.431427,835.395874 
	C108.195633,840.117065 111.801720,846.549866 111.877769,852.276245 
	C112.011391,862.338989 109.026184,872.401001 108.013390,882.530029 
	C106.093826,901.727295 103.919922,920.945129 103.212967,940.204346 
	C102.555702,958.109680 103.505447,976.085266 104.075798,994.019470 
	C104.358841,1002.919861 105.180695,1011.817505 106.110374,1020.679504 
	C107.587128,1034.756226 109.263397,1048.813965 111.035843,1062.856934 
	C112.394791,1073.623657 114.048561,1084.352783 115.541336,1095.102905 
	C117.056351,1106.013062 118.589409,1116.921387 119.940277,1127.852051 
	C120.068161,1128.886841 119.254944,1130.532227 118.366356,1131.121582 
	C110.170433,1136.557373 101.769943,1141.687134 93.617386,1147.185303 
	C88.046165,1150.942505 81.776146,1154.318848 77.614937,1159.350952 
	C72.028580,1166.106567 67.319275,1173.916870 63.767792,1181.952637 
	C57.570740,1195.974243 53.717979,1210.790649 52.994186,1226.258545 
	C52.684635,1232.873901 52.621120,1239.521729 51.866905,1246.088379 
	C51.309082,1250.945068 50.044125,1255.761597 48.663563,1260.469604 
	C47.609756,1264.063477 45.208515,1266.000000 41.068092,1264.542114 
	C28.238762,1260.024414 16.632448,1269.864136 19.158953,1283.285767 
	C21.666281,1296.605713 21.412092,1310.032227 19.771587,1323.269043 
	C17.448765,1342.011475 13.958377,1360.613159 10.811749,1379.248657 
	C8.225992,1394.562744 8.362077,1409.786499 11.472195,1425.009644 
	C12.750494,1431.266602 14.900243,1437.624023 14.653867,1443.856689 
	C14.127880,1457.162842 11.384362,1470.408447 11.251776,1483.695923 
	C11.113874,1497.515991 12.816780,1511.370728 14.020310,1525.183594 
	C15.164263,1538.312866 16.962112,1551.387085 18.007345,1564.522583 
	C19.553303,1583.950684 20.810797,1603.404541 21.932846,1622.862305 
	C22.338305,1629.893433 21.494709,1637.015869 22.167955,1644.005615 
	C22.660854,1649.122925 23.509752,1654.912109 26.297550,1658.955688 
	C32.135067,1667.422729 31.964266,1676.598877 30.714161,1685.586182 
	C28.569126,1701.007446 24.635149,1716.178345 22.435396,1731.594604 
	C21.435165,1738.604492 20.026234,1746.309570 24.062664,1753.026611 
	C29.050920,1761.327393 34.485756,1769.361328 39.779591,1777.476685 
	C55.711914,1801.900635 73.592995,1824.778809 96.165054,1843.398071 
	C108.420258,1853.507202 121.280373,1863.195312 134.963120,1871.200806 
	C170.587524,1892.044678 210.104889,1898.840210 250.722015,1899.891235 
	C284.155548,1900.756470 317.627106,1900.215698 351.054932,1901.205933 
	C365.802948,1901.642944 380.596191,1903.668701 395.171570,1906.137939 
	C421.764801,1910.642944 446.439331,1920.445923 468.953217,1935.458862 
	C474.355621,1939.061401 479.793732,1942.610474 485.376343,1946.290161 
	C492.127533,1936.128296 495.244324,1924.220093 505.442780,1915.397949 
	C506.090576,1919.208618 506.963989,1921.887573 506.925232,1924.553223 
	C506.775696,1934.832886 506.267120,1945.106934 506.078857,1955.386475 
	C506.052277,1956.838379 507.057434,1958.309082 507.584991,1959.770996 
	C509.104584,1959.072998 511.050079,1958.748291 512.056274,1957.600342 
	C514.230530,1955.119629 516.024841,1954.875854 518.002441,1957.538696 
	C519.076294,1958.984619 520.189758,1960.445679 520.979431,1962.050537 
	C524.691956,1969.595947 528.130493,1977.280518 531.997070,1984.744385 
	C534.974365,1990.491699 540.181641,1990.726929 542.854614,1985.140259 
	C544.803650,1981.066650 546.395081,1976.545410 546.848633,1972.091675 
	C547.719604,1963.538818 547.492981,1954.880005 548.079834,1946.289673 
	C548.351379,1942.314575 549.463684,1938.396851 550.236633,1934.227783 
	C555.966980,1936.926880 559.320435,1936.378296 559.833740,1932.659668 
	C560.891174,1924.999756 561.726013,1917.249634 561.747131,1909.534180 
	C561.755981,1906.284546 560.401794,1901.701416 558.040527,1900.049561 
	C552.976868,1896.507202 552.856323,1892.652100 554.631348,1887.781372 
	C555.698486,1884.853027 556.698364,1881.879517 558.057983,1879.086792 
	C558.788330,1877.586426 560.214600,1876.424805 561.326904,1875.110352 
	C562.399597,1876.434082 564.085693,1877.612183 564.440613,1879.106445 
	C566.144531,1886.279053 567.920349,1893.480713 568.877441,1900.776001 
	C571.466797,1920.512817 573.279297,1940.357666 576.172729,1960.046021 
	C577.446045,1968.710571 580.410339,1977.157227 583.046997,1985.564819 
	C583.564453,1987.214844 586.105347,1988.230591 587.713013,1989.538818 
	C588.910278,1985.571289 589.036316,1982.752197 588.888062,1979.947632 
	C588.312012,1969.052856 587.419922,1958.168213 587.157104,1947.267578 
	C587.077881,1943.981079 587.936279,1940.244263 592.751343,1939.773071 
	C593.657959,1939.684204 594.693298,1937.810181 595.134094,1936.569946 
	C597.833374,1928.972778 600.328186,1921.303101 603.014038,1913.701050 
	C603.614502,1912.001343 604.704590,1910.474487 605.929016,1908.199707 
	C606.986450,1909.877075 607.778870,1910.610107 607.935547,1911.460449 
	C610.669739,1926.302856 613.482544,1941.133911 615.937866,1956.023438 
	C617.301392,1964.291870 617.933533,1972.679077 619.143860,1980.976440 
	C619.406677,1982.777954 620.732727,1984.424438 621.347412,1985.687134 
	C626.196289,1978.221924 630.013428,1970.584961 635.464172,1964.384033 
	C642.828003,1956.006836 652.469666,1955.222656 664.125671,1962.793335 
	C673.467285,1968.860962 682.156067,1975.943604 691.567139,1981.891357 
	C699.470703,1986.886230 708.265015,1988.535034 716.681946,1982.938599 
	C719.869141,1980.819458 722.513855,1977.585815 724.757385,1974.403076 
	C731.098328,1965.406860 738.116516,1963.653931 747.064087,1969.704712 
	C751.825378,1972.924438 756.088257,1976.873779 760.784729,1980.199097 
	C764.253662,1982.655151 767.811035,1985.566040 771.770081,1986.624634 
	C779.057373,1988.572876 783.700012,1988.609985 789.755127,1976.903076 
	C791.348511,1973.822388 794.496521,1969.728882 797.246155,1969.471436 
	C801.847412,1969.040649 801.837097,1974.554932 803.007385,1977.972290 
	C806.250000,1987.440552 806.189758,1987.461548 815.984680,1988.007690 
	C816.483521,1988.035522 816.982788,1988.060059 817.482178,1988.072632 
	C829.093262,1988.366211 840.731567,1989.294556 852.309143,1988.800659 
	C869.783997,1988.055176 887.216125,1986.311890 904.667175,1985.002808 
	C913.893677,1984.310913 923.119629,1983.609985 932.349609,1982.967773 
	C951.632446,1981.625977 970.905396,1980.066650 990.208069,1979.121338 
	C998.284058,1978.725830 1006.422668,1979.806763 1014.537720,1979.968262 
	C1031.257690,1980.300781 1047.673950,1982.626587 1063.852417,1986.834229 
	C1067.308105,1987.732788 1071.036987,1989.118164 1074.391846,1988.617188 
	C1096.316528,1985.343384 1118.102417,1981.075439 1140.072998,1978.194336 
	C1158.871582,1975.729248 1177.829956,1974.226685 1196.765747,1973.131836 
	C1217.627441,1971.925415 1238.541504,1971.226074 1259.437256,1971.113037 
	C1285.212769,1970.973633 1310.993408,1971.619751 1336.770508,1972.018066 
	C1352.052979,1972.254028 1367.333130,1972.645630 1382.613525,1973.004272 
	C1395.558472,1973.308105 1408.501221,1973.706665 1421.446533,1973.988037 
	C1438.726562,1974.363525 1456.009155,1974.984375 1473.288940,1974.931885 
	C1506.403687,1974.831299 1539.517212,1974.330444 1572.631226,1973.994995 
	C1573.131104,1973.989990 1573.632446,1973.997192 1574.130615,1973.962280 
	C1592.921875,1972.644531 1611.715332,1971.353516 1630.502930,1969.986572 
	C1638.898804,1969.375732 1647.317993,1968.889404 1655.665405,1967.853271 
	C1669.690552,1966.112061 1683.725342,1964.317139 1697.649170,1961.922852 
	C1716.253540,1958.723877 1734.730347,1954.790649 1753.308716,1951.431396 
	C1773.208374,1947.833496 1790.960449,1938.667480 1808.787109,1929.934204 
	C1834.126465,1917.520752 1859.049316,1904.257812 1884.173584,1891.403564 
	C1901.666504,1882.453979 1919.215454,1873.613770 1936.683350,1864.615723 
	C1938.175049,1863.847534 1939.836060,1862.488281 1940.411011,1861.011475 
	C1943.747925,1852.438232 1947.735718,1843.961792 1949.738159,1835.055664 
	C1955.315918,1810.247803 1960.514404,1785.331055 1964.924805,1760.292236 
	C1968.344238,1740.878540 1970.605225,1721.245728 1972.903687,1701.654297 
	C1974.651733,1686.753906 1975.822876,1671.778442 1976.933472,1656.812622 
	C1978.144775,1640.493042 1979.103882,1624.152100 1979.963135,1607.809448 
	C1980.780762,1592.261230 1981.437866,1576.702393 1981.961670,1561.141479 
	C1982.447632,1546.702148 1982.852661,1532.255249 1982.966431,1517.809082 
	C1983.394531,1463.370239 1983.640747,1408.930176 1984.054565,1354.491211 
	C1984.256714,1327.882202 1984.626343,1301.274048 1985.019653,1274.666870 
	C1985.240479,1259.720337 1985.628174,1244.775757 1986.007202,1229.831909 
	C1986.280640,1219.052734 1986.624512,1208.274902 1987.006226,1197.498901 
	C1987.640015,1179.608154 1988.321899,1161.719360 1988.997681,1143.830200 
	C1989.654663,1126.440308 1990.350586,1109.051636 1990.988525,1091.661133 
	C1991.365601,1081.385010 1991.706543,1071.107178 1991.984985,1060.828003 
	C1992.362671,1046.887329 1992.731812,1032.945801 1992.984375,1019.002441 
	C1993.375854,997.395203 1993.763428,975.786987 1993.977783,954.177490 
	C1994.384033,913.237732 1994.621460,872.296448 1995.016602,831.356628 
	C1995.260620,806.080811 1995.656128,780.806458 1996.002686,755.531677 
	C1996.321899,732.256470 1996.988525,708.980957 1996.933960,685.706909 
	C1996.816528,635.596008 1996.481567,585.484314 1995.927979,535.376404 
	C1995.706299,515.315369 1994.693237,495.262665 1994.004272,475.207397 
	C1993.361206,456.483734 1992.760742,437.757904 1991.966309,419.040466 
	C1991.496460,407.972839 1990.782837,396.912933 1990.007690,385.861542 
	C1988.748535,367.905762 1987.450439,349.951477 1985.976196,332.012360 
	C1984.787964,317.553162 1983.750977,303.060059 1981.862915,288.684937 
	C1979.295532,269.137543 1976.422852,249.606949 1972.853027,230.221634 
	C1969.793701,213.609451 1966.634766,196.880127 1961.625854,180.792236 
	C1952.796997,152.435165 1940.371460,125.469612 1925.814697,99.559540 
	C1912.694092,76.205658 1897.823975,54.086811 1877.053345,36.715763 
	C1869.272095,30.208031 1861.079590,23.965586 1852.330322,18.883381 
	C1823.894287,2.365754 1792.848511,0.689284 1761.577881,6.557477 
	C1741.491211,10.326882 1721.991821,17.260225 1702.266968,22.906633 
	C1694.681641,25.077950 1687.339233,28.392748 1679.632935,29.761736 
	C1672.031494,31.112127 1664.111938,30.715866 1656.328491,30.987226 
	C1645.215820,31.374660 1634.097656,31.607611 1622.986694,32.037621 
	C1618.033569,32.229317 1613.082642,32.637066 1608.148438,33.126698 
	C1595.690186,34.362999 1583.240112,35.683777 1570.790283,37.004517 
	C1561.119263,38.030453 1551.426514,38.906082 1541.792480,40.211105 
	C1528.924438,41.954201 1516.101440,44.032730 1503.263428,45.995701 
	C1489.613403,48.082874 1475.929443,49.981430 1462.330444,52.362747 
	C1443.249878,55.703915 1424.237549,59.433266 1405.189819,62.962852 
	C1382.909180,67.091515 1360.610474,71.124123 1338.340576,75.309669 
	C1318.010376,79.130669 1297.722534,83.176453 1277.389160,86.980484 
	C1260.924683,90.060707 1244.437866,93.029236 1227.928101,95.855835 
	C1216.908569,97.742477 1205.845459,100.631622 1194.777832,100.745216 
	C1160.504150,101.097023 1126.218262,100.392128 1091.938721,99.978661 
	C1077.825806,99.808441 1063.716064,99.353600 1049.605835,98.994339 
	C1037.657349,98.690117 1025.709106,98.367210 1013.762512,97.998947 
	C992.866211,97.354805 971.971069,96.672211 951.075623,96.000290 
	C940.960876,95.675041 930.846863,95.329948 920.732056,95.007523 
	C909.951355,94.663872 899.170349,94.329857 888.389099,94.003677 
	C877.111023,93.662445 865.833679,93.291641 854.554016,93.013107 
	C839.274109,92.635780 823.991211,92.007683 808.711670,92.062752 
	C767.597168,92.210945 726.481567,92.507713 685.370789,93.066223 
	C666.136475,93.327538 646.904602,94.163582 627.685669,95.045166 
	C611.330933,95.795364 594.984192,96.820808 578.656311,98.027145 
	C563.688293,99.133018 548.737854,100.520164 533.802307,102.010025 
	C518.393616,103.547073 502.944580,104.897987 487.634430,107.153374 
	C463.093292,110.768593 438.561890,114.586937 414.195770,119.211845 
	C392.758484,123.280830 371.373169,127.894714 350.290955,133.495239 
	C323.491211,140.614639 296.762207,148.201752 270.479950,157.011139 
	C244.166718,165.830902 218.380844,176.248779 192.494736,186.303284 
	C184.595505,189.371429 176.538956,192.111008 169.929474,198.196182 
	C164.689163,203.020798 158.526352,207.331284 152.035721,210.203720 
	C140.189972,215.446060 127.851624,219.605316 115.621704,223.942703 
	C96.337784,230.781799 77.697861,238.777344 61.011734,250.934738 
	C45.262814,262.409302 33.006702,276.701263 23.984621,293.936768 
	C11.991779,316.847473 6.698218,341.617889 5.240717,367.021210 
	C3.778018,392.515137 4.786888,418.104523 8.075068,443.502655 
	C10.565126,462.736023 13.075129,481.973358 16.043741,501.136536 
	C19.462570,523.205994 23.198593,545.231262 27.159948,567.210266 
	C31.235929,589.825134 35.986015,612.319153 40.006821,634.943237 
	C44.259171,658.870239 48.813496,682.790100 51.717434,706.896057 
	C54.244354,727.872314 54.658115,749.103333 55.992466,770.222656 
	C56.097298,771.881897 55.665665,773.729858 56.267708,775.159973 
	C56.888542,776.634705 58.278946,778.248779 59.701599,778.745544 
	C60.529762,779.034851 62.333023,777.459595 63.255951,776.354553 
	C65.116127,774.127258 66.674660,771.648010 68.980843,768.393066 
	C69.818565,771.435852 70.407555,773.575195 71.009209,776.548462 
z"/>
<path fill="#EE3E38" opacity="1.000000" stroke="none" 
	d="
M71.002876,776.131470 
	C70.407555,773.575195 69.818565,771.435852 68.980843,768.393066 
	C66.674660,771.648010 65.116127,774.127258 63.255951,776.354553 
	C62.333023,777.459595 60.529762,779.034851 59.701599,778.745544 
	C58.278946,778.248779 56.888542,776.634705 56.267708,775.159973 
	C55.665665,773.729858 56.097298,771.881897 55.992466,770.222656 
	C54.658115,749.103333 54.244354,727.872314 51.717434,706.896057 
	C48.813496,682.790100 44.259171,658.870239 40.006821,634.943237 
	C35.986015,612.319153 31.235929,589.825134 27.159948,567.210266 
	C23.198593,545.231262 19.462570,523.205994 16.043741,501.136536 
	C13.075129,481.973358 10.565126,462.736023 8.075068,443.502655 
	C4.786888,418.104523 3.778018,392.515137 5.240717,367.021210 
	C6.698218,341.617889 11.991779,316.847473 23.984621,293.936768 
	C33.006702,276.701263 45.262814,262.409302 61.011734,250.934738 
	C77.697861,238.777344 96.337784,230.781799 115.621704,223.942703 
	C127.851624,219.605316 140.189972,215.446060 152.035721,210.203720 
	C158.526352,207.331284 164.689163,203.020798 169.929474,198.196182 
	C176.538956,192.111008 184.595505,189.371429 192.494736,186.303284 
	C218.380844,176.248779 244.166718,165.830902 270.479950,157.011139 
	C296.762207,148.201752 323.491211,140.614639 350.290955,133.495239 
	C371.373169,127.894714 392.758484,123.280830 414.195770,119.211845 
	C438.561890,114.586937 463.093292,110.768593 487.634430,107.153374 
	C502.944580,104.897987 518.393616,103.547073 533.802307,102.010025 
	C548.737854,100.520164 563.688293,99.133018 578.656311,98.027145 
	C594.984192,96.820808 611.330933,95.795364 627.685669,95.045166 
	C646.904602,94.163582 666.136475,93.327538 685.370789,93.066223 
	C726.481567,92.507713 767.597168,92.210945 808.711670,92.062752 
	C823.991211,92.007683 839.274109,92.635780 854.554016,93.013107 
	C865.833679,93.291641 877.111023,93.662445 888.389099,94.003677 
	C899.170349,94.329857 909.951355,94.663872 920.732056,95.007523 
	C930.846863,95.329948 940.960876,95.675041 951.075623,96.000290 
	C971.971069,96.672211 992.866211,97.354805 1013.762512,97.998947 
	C1025.709106,98.367210 1037.657349,98.690117 1049.605835,98.994339 
	C1063.716064,99.353600 1077.825806,99.808441 1091.938721,99.978661 
	C1126.218262,100.392128 1160.504150,101.097023 1194.777832,100.745216 
	C1205.845459,100.631622 1216.908569,97.742477 1227.928101,95.855835 
	C1244.437866,93.029236 1260.924683,90.060707 1277.389160,86.980484 
	C1297.722534,83.176453 1318.010376,79.130669 1338.340576,75.309669 
	C1360.610474,71.124123 1382.909180,67.091515 1405.189819,62.962852 
	C1424.237549,59.433266 1443.249878,55.703915 1462.330444,52.362747 
	C1475.929443,49.981430 1489.613403,48.082874 1503.263428,45.995701 
	C1516.101440,44.032730 1528.924438,41.954201 1541.792480,40.211105 
	C1551.426514,38.906082 1561.119263,38.030453 1570.790283,37.004517 
	C1583.240112,35.683777 1595.690186,34.362999 1608.148438,33.126698 
	C1613.082642,32.637066 1618.033569,32.229317 1622.986694,32.037621 
	C1634.097656,31.607611 1645.215820,31.374660 1656.328491,30.987226 
	C1664.111938,30.715866 1672.031494,31.112127 1679.632935,29.761736 
	C1687.339233,28.392748 1694.681641,25.077950 1702.266968,22.906633 
	C1721.991821,17.260225 1741.491211,10.326882 1761.577881,6.557477 
	C1792.848511,0.689284 1823.894287,2.365754 1852.330322,18.883381 
	C1861.079590,23.965586 1869.272095,30.208031 1877.053345,36.715763 
	C1897.823975,54.086811 1912.694092,76.205658 1925.814697,99.559540 
	C1940.371460,125.469612 1952.796997,152.435165 1961.625854,180.792236 
	C1966.634766,196.880127 1969.793701,213.609451 1972.853027,230.221634 
	C1976.422852,249.606949 1979.295532,269.137543 1981.862915,288.684937 
	C1983.750977,303.060059 1984.787964,317.553162 1985.976196,332.012360 
	C1987.450439,349.951477 1988.748535,367.905762 1990.007690,385.861542 
	C1990.782837,396.912933 1991.496460,407.972839 1991.966309,419.040466 
	C1992.760742,437.757904 1993.361206,456.483734 1994.004272,475.207397 
	C1994.693237,495.262665 1995.706299,515.315369 1995.927979,535.376404 
	C1996.481567,585.484314 1996.816528,635.596008 1996.933960,685.706909 
	C1996.988525,708.980957 1996.321899,732.256470 1996.002686,755.531677 
	C1995.656128,780.806458 1995.260620,806.080811 1995.016602,831.356628 
	C1994.621460,872.296448 1994.384033,913.237732 1993.977783,954.177490 
	C1993.763428,975.786987 1993.375854,997.395203 1992.984375,1019.002441 
	C1992.731812,1032.945801 1992.362671,1046.887329 1991.984985,1060.828003 
	C1991.706543,1071.107178 1991.365601,1081.385010 1990.988525,1091.661133 
	C1990.350586,1109.051636 1989.654663,1126.440308 1988.997681,1143.830200 
	C1988.321899,1161.719360 1987.640015,1179.608154 1987.006226,1197.498901 
	C1986.624512,1208.274902 1986.280640,1219.052734 1986.007202,1229.831909 
	C1985.628174,1244.775757 1985.240479,1259.720337 1985.019653,1274.666870 
	C1984.626343,1301.274048 1984.256714,1327.882202 1984.054565,1354.491211 
	C1983.640747,1408.930176 1983.394531,1463.370239 1982.966431,1517.809082 
	C1982.852661,1532.255249 1982.447632,1546.702148 1981.961670,1561.141479 
	C1981.437866,1576.702393 1980.780762,1592.261230 1979.963135,1607.809448 
	C1979.103882,1624.152100 1978.144775,1640.493042 1976.933472,1656.812622 
	C1975.822876,1671.778442 1974.651733,1686.753906 1972.903687,1701.654297 
	C1970.605225,1721.245728 1968.344238,1740.878540 1964.924805,1760.292236 
	C1960.514404,1785.331055 1955.315918,1810.247803 1949.738159,1835.055664 
	C1947.735718,1843.961792 1943.747925,1852.438232 1940.411011,1861.011475 
	C1939.836060,1862.488281 1938.175049,1863.847534 1936.683350,1864.615723 
	C1919.215454,1873.613770 1901.666504,1882.453979 1884.173584,1891.403564 
	C1859.049316,1904.257812 1834.126465,1917.520752 1808.787109,1929.934204 
	C1790.960449,1938.667480 1773.208374,1947.833496 1753.308716,1951.431396 
	C1734.730347,1954.790649 1716.253540,1958.723877 1697.649170,1961.922852 
	C1683.725342,1964.317139 1669.690552,1966.112061 1655.665405,1967.853271 
	C1647.317993,1968.889404 1638.898804,1969.375732 1630.502930,1969.986572 
	C1611.715332,1971.353516 1592.921875,1972.644531 1574.130615,1973.962280 
	C1573.632446,1973.997192 1573.131104,1973.989990 1572.631226,1973.994995 
	C1539.517212,1974.330444 1506.403687,1974.831299 1473.288940,1974.931885 
	C1456.009155,1974.984375 1438.726562,1974.363525 1421.446533,1973.988037 
	C1408.501221,1973.706665 1395.558472,1973.308105 1382.613525,1973.004272 
	C1367.333130,1972.645630 1352.052979,1972.254028 1336.770508,1972.018066 
	C1310.993408,1971.619751 1285.212769,1970.973633 1259.437256,1971.113037 
	C1238.541504,1971.226074 1217.627441,1971.925415 1196.765747,1973.131836 
	C1177.829956,1974.226685 1158.871582,1975.729248 1140.072998,1978.194336 
	C1118.102417,1981.075439 1096.316528,1985.343384 1074.391846,1988.617188 
	C1071.036987,1989.118164 1067.308105,1987.732788 1063.852417,1986.834229 
	C1047.673950,1982.626587 1031.257690,1980.300781 1014.537720,1979.968262 
	C1006.422668,1979.806763 998.284058,1978.725830 990.208069,1979.121338 
	C970.905396,1980.066650 951.632446,1981.625977 932.349609,1982.967773 
	C923.119629,1983.609985 913.893677,1984.310913 904.667175,1985.002808 
	C887.216125,1986.311890 869.783997,1988.055176 852.309143,1988.800659 
	C840.731567,1989.294556 829.093262,1988.366211 817.482178,1988.072632 
	C816.982788,1988.060059 816.483521,1988.035522 815.984680,1988.007690 
	C806.189758,1987.461548 806.250000,1987.440552 803.007385,1977.972290 
	C801.837097,1974.554932 801.847412,1969.040649 797.246155,1969.471436 
	C794.496521,1969.728882 791.348511,1973.822388 789.755127,1976.903076 
	C783.700012,1988.609985 779.057373,1988.572876 771.770081,1986.624634 
	C767.811035,1985.566040 764.253662,1982.655151 760.784729,1980.199097 
	C756.088257,1976.873779 751.825378,1972.924438 747.064087,1969.704712 
	C738.116516,1963.653931 731.098328,1965.406860 724.757385,1974.403076 
	C722.513855,1977.585815 719.869141,1980.819458 716.681946,1982.938599 
	C708.265015,1988.535034 699.470703,1986.886230 691.567139,1981.891357 
	C682.156067,1975.943604 673.467285,1968.860962 664.125671,1962.793335 
	C652.469666,1955.222656 642.828003,1956.006836 635.464172,1964.384033 
	C630.013428,1970.584961 626.196289,1978.221924 621.347412,1985.687134 
	C620.732727,1984.424438 619.406677,1982.777954 619.143860,1980.976440 
	C617.933533,1972.679077 617.301392,1964.291870 615.937866,1956.023438 
	C613.482544,1941.133911 610.669739,1926.302856 607.935547,1911.460449 
	C607.778870,1910.610107 606.986450,1909.877075 605.929016,1908.199707 
	C604.704590,1910.474487 603.614502,1912.001343 603.014038,1913.701050 
	C600.328186,1921.303101 597.833374,1928.972778 595.134094,1936.569946 
	C594.693298,1937.810181 593.657959,1939.684204 592.751343,1939.773071 
	C587.936279,1940.244263 587.077881,1943.981079 587.157104,1947.267578 
	C587.419922,1958.168213 588.312012,1969.052856 588.888062,1979.947632 
	C589.036316,1982.752197 588.910278,1985.571289 587.713013,1989.538818 
	C586.105347,1988.230591 583.564453,1987.214844 583.046997,1985.564819 
	C580.410339,1977.157227 577.446045,1968.710571 576.172729,1960.046021 
	C573.279297,1940.357666 571.466797,1920.512817 568.877441,1900.776001 
	C567.920349,1893.480713 566.144531,1886.279053 564.440613,1879.106445 
	C564.085693,1877.612183 562.399597,1876.434082 561.326904,1875.110352 
	C560.214600,1876.424805 558.788330,1877.586426 558.057983,1879.086792 
	C556.698364,1881.879517 555.698486,1884.853027 554.631348,1887.781372 
	C552.856323,1892.652100 552.976868,1896.507202 558.040527,1900.049561 
	C560.401794,1901.701416 561.755981,1906.284546 561.747131,1909.534180 
	C561.726013,1917.249634 560.891174,1924.999756 559.833740,1932.659668 
	C559.320435,1936.378296 555.966980,1936.926880 550.236633,1934.227783 
	C549.463684,1938.396851 548.351379,1942.314575 548.079834,1946.289673 
	C547.492981,1954.880005 547.719604,1963.538818 546.848633,1972.091675 
	C546.395081,1976.545410 544.803650,1981.066650 542.854614,1985.140259 
	C540.181641,1990.726929 534.974365,1990.491699 531.997070,1984.744385 
	C528.130493,1977.280518 524.691956,1969.595947 520.979431,1962.050537 
	C520.189758,1960.445679 519.076294,1958.984619 518.002441,1957.538696 
	C516.024841,1954.875854 514.230530,1955.119629 512.056274,1957.600342 
	C511.050079,1958.748291 509.104584,1959.072998 507.585022,1959.770996 
	C507.057434,1958.309082 506.052277,1956.838379 506.078857,1955.386475 
	C506.267120,1945.106934 506.775696,1934.832886 506.925232,1924.553223 
	C506.963989,1921.887573 506.090576,1919.208618 505.442780,1915.397949 
	C495.244324,1924.220093 492.127533,1936.128296 485.376343,1946.290161 
	C479.793732,1942.610474 474.355621,1939.061401 468.953217,1935.458862 
	C446.439331,1920.445923 421.764801,1910.642944 395.171570,1906.137939 
	C380.596191,1903.668701 365.802948,1901.642944 351.054932,1901.205933 
	C317.627106,1900.215698 284.155548,1900.756470 250.722015,1899.891235 
	C210.104889,1898.840210 170.587524,1892.044678 134.963120,1871.200806 
	C121.280373,1863.195312 108.420258,1853.507202 96.165054,1843.398071 
	C73.592995,1824.778809 55.711914,1801.900635 39.779591,1777.476685 
	C34.485756,1769.361328 29.050920,1761.327393 24.062664,1753.026611 
	C20.026234,1746.309570 21.435165,1738.604492 22.435396,1731.594604 
	C24.635149,1716.178345 28.569126,1701.007446 30.714161,1685.586182 
	C31.964266,1676.598877 32.135067,1667.422729 26.297550,1658.955688 
	C23.509752,1654.912109 22.660854,1649.122925 22.167955,1644.005615 
	C21.494709,1637.015869 22.338305,1629.893433 21.932846,1622.862305 
	C20.810797,1603.404541 19.553303,1583.950684 18.007345,1564.522583 
	C16.962112,1551.387085 15.164263,1538.312866 14.020310,1525.183594 
	C12.816780,1511.370728 11.113874,1497.515991 11.251776,1483.695923 
	C11.384362,1470.408447 14.127880,1457.162842 14.653867,1443.856689 
	C14.900243,1437.624023 12.750494,1431.266602 11.472195,1425.009644 
	C8.362077,1409.786499 8.225992,1394.562744 10.811749,1379.248657 
	C13.958377,1360.613159 17.448765,1342.011475 19.771587,1323.269043 
	C21.412092,1310.032227 21.666281,1296.605713 19.158953,1283.285767 
	C16.632448,1269.864136 28.238762,1260.024414 41.068092,1264.542114 
	C45.208515,1266.000000 47.609756,1264.063477 48.663563,1260.469604 
	C50.044125,1255.761597 51.309082,1250.945068 51.866905,1246.088379 
	C52.621120,1239.521729 52.684635,1232.873901 52.994186,1226.258545 
	C53.717979,1210.790649 57.570740,1195.974243 63.767792,1181.952637 
	C67.319275,1173.916870 72.028580,1166.106567 77.614937,1159.350952 
	C81.776146,1154.318848 88.046165,1150.942505 93.617386,1147.185303 
	C101.769943,1141.687134 110.170433,1136.557373 118.366356,1131.121582 
	C119.254944,1130.532227 120.068161,1128.886841 119.940277,1127.852051 
	C118.589409,1116.921387 117.056351,1106.013062 115.541336,1095.102905 
	C114.048561,1084.352783 112.394791,1073.623657 111.035843,1062.856934 
	C109.263397,1048.813965 107.587128,1034.756226 106.110374,1020.679504 
	C105.180695,1011.817505 104.358841,1002.919861 104.075798,994.019470 
	C103.505447,976.085266 102.555702,958.109680 103.212967,940.204346 
	C103.919922,920.945129 106.093826,901.727295 108.013390,882.530029 
	C109.026184,872.401001 112.011391,862.338989 111.877769,852.276245 
	C111.801720,846.549866 108.195633,840.117065 104.431427,835.395874 
	C100.318764,830.237671 94.145844,826.739624 88.946899,822.426392 
	C79.575157,814.651428 77.047752,803.393982 74.091873,792.453796 
	C72.686951,787.253967 72.013840,781.856445 71.002876,776.131470 
M1295.956421,609.584412 
	C1297.697754,617.549194 1299.655029,625.475281 1301.090942,633.494751 
	C1301.826782,637.604309 1303.615723,638.668823 1307.709961,638.659546 
	C1369.874146,638.518433 1432.038818,638.565247 1494.203369,638.553101 
	C1495.938721,638.552734 1497.673950,638.385864 1499.509277,638.291504 
	C1499.427856,637.187439 1499.428223,636.704285 1499.352173,636.233521 
	C1492.189819,591.910767 1481.183228,548.690369 1464.071533,507.029968 
	C1410.089600,375.605530 1315.882446,286.886139 1181.699219,240.718704 
	C1140.478271,226.536102 1097.557861,220.414307 1054.249634,217.082458 
	C1038.737427,215.889053 1023.149780,215.036728 1007.601440,215.108124 
	C985.868713,215.207886 964.130615,216.097885 942.414307,217.080002 
	C929.370911,217.669922 916.312622,218.646484 903.351624,220.203537 
	C870.262207,224.178696 837.634766,230.625900 805.663574,240.123474 
	C745.122498,258.108185 688.720703,284.442078 639.000061,323.900299 
	C561.240051,385.610443 513.324890,465.208313 497.241638,563.345032 
	C494.157745,582.162354 493.057648,601.391418 492.298981,620.480469 
	C491.429932,642.345520 490.997223,664.307068 494.194183,686.086975 
	C496.305084,700.468201 498.231079,714.904663 501.120453,729.137573 
	C506.878113,757.499268 516.336731,784.670166 530.320374,810.053833 
	C559.775330,863.521790 600.901978,906.339661 651.593384,939.888733 
	C702.140381,973.342285 757.430115,997.078491 814.434814,1017.049927 
	C867.929443,1035.791626 923.399414,1047.182983 978.208252,1061.036743 
	C1029.486450,1073.997925 1081.009277,1086.088623 1131.939941,1100.298828 
	C1179.108154,1113.459351 1223.658569,1133.138062 1264.241577,1161.121216 
	C1297.949707,1184.364014 1323.564941,1213.908813 1337.130371,1253.041504 
	C1350.907837,1292.786255 1352.355835,1333.523804 1346.402466,1374.751099 
	C1342.489868,1401.846436 1334.086060,1427.560425 1320.648438,1451.451416 
	C1292.530396,1501.443359 1250.815552,1536.596558 1199.369873,1560.559937 
	C1149.374268,1583.847900 1096.138794,1593.131836 1041.406372,1594.752441 
	C1013.209900,1595.587402 984.972107,1595.743286 956.928589,1591.865234 
	C942.369019,1589.851685 927.717773,1588.042358 913.395081,1584.851807 
	C844.948975,1569.603882 786.326538,1537.604736 740.530090,1483.398438 
	C704.186096,1440.380371 679.548279,1391.559814 665.491455,1337.237427 
	C662.756042,1326.666260 660.786072,1315.897095 658.488525,1305.336670 
	C589.712158,1305.336670 521.450500,1305.336670 452.552063,1305.336670 
	C453.735992,1312.190674 454.851135,1318.649170 455.967285,1325.107544 
	C457.841522,1335.952148 459.263794,1346.898193 461.666351,1357.624512 
	C474.774597,1416.147339 495.739258,1471.626221 526.189453,1523.441895 
	C593.630798,1638.204102 690.770386,1715.092285 818.528625,1752.955322 
	C852.331909,1762.973511 886.808594,1769.828613 921.919373,1773.110229 
	C943.354187,1775.113403 964.836365,1777.283569 986.333740,1777.772705 
	C1012.587219,1778.370239 1038.881958,1777.426147 1065.152710,1776.858643 
	C1075.869873,1776.627197 1086.632812,1776.152466 1097.265259,1774.875610 
	C1116.158936,1772.606934 1135.047241,1770.098511 1153.800049,1766.886475 
	C1218.031006,1755.884644 1278.734253,1735.094360 1334.713135,1701.186035 
	C1381.330200,1672.948364 1422.669312,1638.663818 1456.213867,1595.531616 
	C1500.232788,1538.931396 1528.390015,1475.247681 1541.380737,1404.634155 
	C1545.935059,1379.878418 1547.841431,1355.004150 1548.889648,1330.003662 
	C1549.347046,1319.095459 1548.722656,1308.097900 1547.917236,1297.190552 
	C1546.523804,1278.320312 1545.611816,1259.332397 1542.706909,1240.672607 
	C1535.961914,1197.345093 1521.836060,1156.416382 1498.853394,1118.886597 
	C1462.633179,1059.740234 1413.770020,1013.259827 1354.754761,977.359741 
	C1293.933105,940.360718 1228.712280,913.222473 1159.999634,895.164795 
	C1087.611084,876.140991 1014.781189,858.784302 942.061646,841.037170 
	C900.959229,831.006165 860.220093,820.036865 821.715576,802.044189 
	C792.430359,788.359436 764.934326,771.864624 741.276367,749.655396 
	C709.091980,719.441895 692.511536,681.905640 689.848816,637.953552 
	C688.458801,615.008972 689.807800,592.298462 696.612305,570.327881 
	C717.849426,501.756378 762.316345,453.247223 826.846130,423.120361 
	C872.681213,401.721497 921.941833,395.457367 971.882996,394.192383 
	C991.739014,393.689423 1011.666687,395.017059 1031.528564,396.113037 
	C1043.845825,396.792755 1056.154419,398.227966 1068.374878,399.969299 
	C1129.210571,408.637939 1181.007324,435.894012 1224.292969,478.787384 
	C1260.711304,514.875610 1283.955933,558.838623 1295.956421,609.584412 
z"/>
<path fill="#FFFFFF" opacity="1.000000" stroke="none" 
	d="
M1295.882446,609.171936 
	C1283.955933,558.838623 1260.711304,514.875610 1224.292969,478.787384 
	C1181.007324,435.894012 1129.210571,408.637939 1068.374878,399.969299 
	C1056.154419,398.227966 1043.845825,396.792755 1031.528564,396.113037 
	C1011.666687,395.017059 991.739014,393.689423 971.882996,394.192383 
	C921.941833,395.457367 872.681213,401.721497 826.846130,423.120361 
	C762.316345,453.247223 717.849426,501.756378 696.612305,570.327881 
	C689.807800,592.298462 688.458801,615.008972 689.848816,637.953552 
	C692.511536,681.905640 709.091980,719.441895 741.276367,749.655396 
	C764.934326,771.864624 792.430359,788.359436 821.715576,802.044189 
	C860.220093,820.036865 900.959229,831.006165 942.061646,841.037170 
	C1014.781189,858.784302 1087.611084,876.140991 1159.999634,895.164795 
	C1228.712280,913.222473 1293.933105,940.360718 1354.754761,977.359741 
	C1413.770020,1013.259827 1462.633179,1059.740234 1498.853394,1118.886597 
	C1521.836060,1156.416382 1535.961914,1197.345093 1542.706909,1240.672607 
	C1545.611816,1259.332397 1546.523804,1278.320312 1547.917236,1297.190552 
	C1548.722656,1308.097900 1549.347046,1319.095459 1548.889648,1330.003662 
	C1547.841431,1355.004150 1545.935059,1379.878418 1541.380737,1404.634155 
	C1528.390015,1475.247681 1500.232788,1538.931396 1456.213867,1595.531616 
	C1422.669312,1638.663818 1381.330200,1672.948364 1334.713135,1701.186035 
	C1278.734253,1735.094360 1218.031006,1755.884644 1153.800049,1766.886475 
	C1135.047241,1770.098511 1116.158936,1772.606934 1097.265259,1774.875610 
	C1086.632812,1776.152466 1075.869873,1776.627197 1065.152710,1776.858643 
	C1038.881958,1777.426147 1012.587219,1778.370239 986.333740,1777.772705 
	C964.836365,1777.283569 943.354187,1775.113403 921.919373,1773.110229 
	C886.808594,1769.828613 852.331909,1762.973511 818.528625,1752.955322 
	C690.770386,1715.092285 593.630798,1638.204102 526.189453,1523.441895 
	C495.739258,1471.626221 474.774597,1416.147339 461.666351,1357.624512 
	C459.263794,1346.898193 457.841522,1335.952148 455.967285,1325.107544 
	C454.851135,1318.649170 453.735992,1312.190674 452.552063,1305.336670 
	C521.450500,1305.336670 589.712158,1305.336670 658.488525,1305.336670 
	C660.786072,1315.897095 662.756042,1326.666260 665.491455,1337.237427 
	C679.548279,1391.559814 704.186096,1440.380371 740.530090,1483.398438 
	C786.326538,1537.604736 844.948975,1569.603882 913.395081,1584.851807 
	C927.717773,1588.042358 942.369019,1589.851685 956.928589,1591.865234 
	C984.972107,1595.743286 1013.209900,1595.587402 1041.406372,1594.752441 
	C1096.138794,1593.131836 1149.374268,1583.847900 1199.369873,1560.559937 
	C1250.815552,1536.596558 1292.530396,1501.443359 1320.648438,1451.451416 
	C1334.086060,1427.560425 1342.489868,1401.846436 1346.402466,1374.751099 
	C1352.355835,1333.523804 1350.907837,1292.786255 1337.130371,1253.041504 
	C1323.564941,1213.908813 1297.949707,1184.364014 1264.241577,1161.121216 
	C1223.658569,1133.138062 1179.108154,1113.459351 1131.939941,1100.298828 
	C1081.009277,1086.088623 1029.486450,1073.997925 978.208252,1061.036743 
	C923.399414,1047.182983 867.929443,1035.791626 814.434814,1017.049927 
	C757.430115,997.078491 702.140381,973.342285 651.593384,939.888733 
	C600.901978,906.339661 559.775330,863.521790 530.320374,810.053833 
	C516.336731,784.670166 506.878113,757.499268 501.120453,729.137573 
	C498.231079,714.904663 496.305084,700.468201 494.194183,686.086975 
	C490.997223,664.307068 491.429932,642.345520 492.298981,620.480469 
	C493.057648,601.391418 494.157745,582.162354 497.241638,563.345032 
	C513.324890,465.208313 561.240051,385.610443 639.000061,323.900299 
	C688.720703,284.442078 745.122498,258.108185 805.663574,240.123474 
	C837.634766,230.625900 870.262207,224.178696 903.351624,220.203537 
	C916.312622,218.646484 929.370911,217.669922 942.414307,217.080002 
	C964.130615,216.097885 985.868713,215.207886 1007.601440,215.108124 
	C1023.149780,215.036728 1038.737427,215.889053 1054.249634,217.082458 
	C1097.557861,220.414307 1140.478271,226.536102 1181.699219,240.718704 
	C1315.882446,286.886139 1410.089600,375.605530 1464.071533,507.029968 
	C1481.183228,548.690369 1492.189819,591.910767 1499.352173,636.233521 
	C1499.428223,636.704285 1499.427856,637.187439 1499.509277,638.291504 
	C1497.673950,638.385864 1495.938721,638.552734 1494.203369,638.553101 
	C1432.038818,638.565247 1369.874146,638.518433 1307.709961,638.659546 
	C1303.615723,638.668823 1301.826782,637.604309 1301.090942,633.494751 
	C1299.655029,625.475281 1297.697754,617.549194 1295.882446,609.171936 
z"/>
</svg>