{
	"asset":{
		"generator":"Khronos glTF Blender I/O v4.1.63",
		"version":"2.0"
	},
	"scene":0,
	"scenes":[
		{
			"name":"Scene",
			"nodes":[
				0
			]
		}
	],
	"nodes":[
		{
			"mesh":0,
			"name":"Cube.207",
			"rotation":[
				0.7071068286895752,
				0,
				0,
				0.7071068286895752
			],
			"scale":[
				0.8304458856582642,
				0.8304458856582642,
				0.8304458856582642
			],
			"translation":[
				0,
				1.190088152885437,
				0
			]
		}
	],
	"materials":[
		{
			"doubleSided":true,
			"name":"linked in",
			"pbrMetallicRoughness":{
				"baseColorFactor":[
					0.004391416907310486,
					0.18116430938243866,
					0.3915725350379944,
					1
				],
				"metallicFactor":0,
				"roughnessFactor":0.5710718631744385
			}
		},
		{
			"doubleSided":true,
			"name":"SVGMat.001",
			"pbrMetallicRoughness":{
				"baseColorFactor":[
					1,
					1,
					1,
					1
				],
				"metallicFactor":0,
				"roughnessFactor":0.4000000059604645
			}
		}
	],
	"meshes":[
		{
			"name":"Cube.198",
			"primitives":[
				{
					"attributes":{
						"POSITION":0,
						"NORMAL":1,
						"TEXCOORD_0":2
					},
					"indices":3,
					"material":0
				},
				{
					"attributes":{
						"POSITION":4,
						"NORMAL":5,
						"TEXCOORD_0":6
					},
					"indices":7,
					"material":1
				}
			]
		}
	],
	"accessors":[
		{
			"bufferView":0,
			"componentType":5126,
			"count":24272,
			"max":[
				0.9995145797729492,
				0.22523322701454163,
				0.9995145797729492
			],
			"min":[
				-0.9995144009590149,
				-0.22523322701454163,
				-0.9995145797729492
			],
			"type":"VEC3"
		},
		{
			"bufferView":1,
			"componentType":5126,
			"count":24272,
			"type":"VEC3"
		},
		{
			"bufferView":2,
			"componentType":5126,
			"count":24272,
			"type":"VEC2"
		},
		{
			"bufferView":3,
			"componentType":5123,
			"count":127680,
			"type":"SCALAR"
		},
		{
			"bufferView":4,
			"componentType":5126,
			"count":1958,
			"max":[
				0.4232444763183594,
				0.2070254385471344,
				0.4083271920681
			],
			"min":[
				-0.44929900765419006,
				-0.1526954621076584,
				-0.4620914161205292
			],
			"type":"VEC3"
		},
		{
			"bufferView":5,
			"componentType":5126,
			"count":1958,
			"type":"VEC3"
		},
		{
			"bufferView":6,
			"componentType":5126,
			"count":1958,
			"type":"VEC2"
		},
		{
			"bufferView":7,
			"componentType":5123,
			"count":9396,
			"type":"SCALAR"
		}
	],
	"bufferViews":[
		{
			"buffer":0,
			"byteLength":291264,
			"byteOffset":0,
			"target":34962
		},
		{
			"buffer":0,
			"byteLength":291264,
			"byteOffset":291264,
			"target":34962
		},
		{
			"buffer":0,
			"byteLength":194176,
			"byteOffset":582528,
			"target":34962
		},
		{
			"buffer":0,
			"byteLength":255360,
			"byteOffset":776704,
			"target":34963
		},
		{
			"buffer":0,
			"byteLength":23496,
			"byteOffset":1032064,
			"target":34962
		},
		{
			"buffer":0,
			"byteLength":23496,
			"byteOffset":1055560,
			"target":34962
		},
		{
			"buffer":0,
			"byteLength":15664,
			"byteOffset":1079056,
			"target":34962
		},
		{
			"buffer":0,
			"byteLength":18792,
			"byteOffset":1094720,
			"target":34963
		}
	],
	"buffers":[
		{
			"byteLength":1113512,
			"uri":"linkedin1.bin"
		}
	]
}
