{
	"asset":{
		"generator":"Khronos glTF Blender I/O v4.1.63",
		"version":"2.0"
	},
	"scene":0,
	"scenes":[
		{
			"name":"Scene",
			"nodes":[
				0
			]
		}
	],
	"nodes":[
		{
			"mesh":0,
			"name":"Circle.001",
			"rotation":[
				0.7071068286895752,
				0,
				0,
				0.7071068286895752
			],
			"scale":[
				1,
				0.8428459763526917,
				1
			]
		}
	],
	"materials":[
		{
			"doubleSided":true,
			"name":"Material.007",
			"pbrMetallicRoughness":{
				"baseColorFactor":[
					0,
					0,
					0,
					1
				],
				"metallicFactor":0,
				"roughnessFactor":0.5
			}
		},
		{
			"doubleSided":true,
			"name":"Material.001",
			"pbrMetallicRoughness":{
				"baseColorFactor":[
					0.800000011920929,
					0.800000011920929,
					0.800000011920929,
					1
				],
				"metallicFactor":0,
				"roughnessFactor":0.5
			}
		}
	],
	"meshes":[
		{
			"name":"Circle.001",
			"primitives":[
				{
					"attributes":{
						"POSITION":0,
						"NORMAL":1,
						"TEXCOORD_0":2
					},
					"indices":3,
					"material":0
				},
				{
					"attributes":{
						"POSITION":4,
						"NORMAL":5,
						"TEXCOORD_0":6
					},
					"indices":7,
					"material":1
				}
			]
		}
	],
	"accessors":[
		{
			"bufferView":0,
			"componentType":5126,
			"count":4418,
			"max":[
				2.669785261154175,
				1.3962044715881348,
				2.663031816482544
			],
			"min":[
				-2.669560670852661,
				0,
				-2.668712854385376
			],
			"type":"VEC3"
		},
		{
			"bufferView":1,
			"componentType":5126,
			"count":4418,
			"type":"VEC3"
		},
		{
			"bufferView":2,
			"componentType":5126,
			"count":4418,
			"type":"VEC2"
		},
		{
			"bufferView":3,
			"componentType":5123,
			"count":26496,
			"type":"SCALAR"
		},
		{
			"bufferView":4,
			"componentType":5126,
			"count":2148,
			"max":[
				1.7102643251419067,
				1.095747947692871,
				1.663903832435608
			],
			"min":[
				-1.7077770233154297,
				0,
				-1.7127106189727783
			],
			"type":"VEC3"
		},
		{
			"bufferView":5,
			"componentType":5126,
			"count":2148,
			"type":"VEC3"
		},
		{
			"bufferView":6,
			"componentType":5126,
			"count":2148,
			"type":"VEC2"
		},
		{
			"bufferView":7,
			"componentType":5123,
			"count":12876,
			"type":"SCALAR"
		}
	],
	"bufferViews":[
		{
			"buffer":0,
			"byteLength":53016,
			"byteOffset":0,
			"target":34962
		},
		{
			"buffer":0,
			"byteLength":53016,
			"byteOffset":53016,
			"target":34962
		},
		{
			"buffer":0,
			"byteLength":35344,
			"byteOffset":106032,
			"target":34962
		},
		{
			"buffer":0,
			"byteLength":52992,
			"byteOffset":141376,
			"target":34963
		},
		{
			"buffer":0,
			"byteLength":25776,
			"byteOffset":194368,
			"target":34962
		},
		{
			"buffer":0,
			"byteLength":25776,
			"byteOffset":220144,
			"target":34962
		},
		{
			"buffer":0,
			"byteLength":17184,
			"byteOffset":245920,
			"target":34962
		},
		{
			"buffer":0,
			"byteLength":25752,
			"byteOffset":263104,
			"target":34963
		}
	],
	"buffers":[
		{
			"byteLength":288856,
			"uri":"github2.bin"
		}
	]
}
