{
	"asset":{
		"generator":"Khronos glTF Blender I/O v4.1.63",
		"version":"2.0"
	},
	"scene":0,
	"scenes":[
		{
			"name":"Scene",
			"nodes":[
				9
			]
		}
	],
	"nodes":[
		{
			"mesh":0,
			"name":"Cube.091",
			"scale":[
				1.0683362483978271,
				1.0683362483978271,
				1.0683363676071167
			],
			"translation":[
				-3.5338960060471436e-06,
				0,
				-0.6182844042778015
			]
		},
		{
			"mesh":1,
			"name":"Curve.054",
			"rotation":[
				0.7071070671081543,
				0,
				0,
				0.7071065902709961
			],
			"scale":[
				8.200591087341309,
				74.59026336669922,
				8.200591087341309
			],
			"translation":[
				-1.15566885471344,
				-1.1549108028411865,
				1.4992270469665527
			]
		},
		{
			"mesh":2,
			"name":"Curve.055",
			"rotation":[
				0.7071070671081543,
				0,
				0,
				0.7071065902709961
			],
			"scale":[
				8.200591087341309,
				74.59026336669922,
				8.200591087341309
			],
			"translation":[
				-1.15566885471344,
				-1.1549108028411865,
				1.4992270469665527
			]
		},
		{
			"mesh":3,
			"name":"Curve.056",
			"rotation":[
				0.7071070671081543,
				0,
				0,
				0.7071065902709961
			],
			"scale":[
				8.200591087341309,
				74.59026336669922,
				8.200591087341309
			],
			"translation":[
				-1.15566885471344,
				-1.1549108028411865,
				1.4992270469665527
			]
		},
		{
			"mesh":4,
			"name":"Curve.057",
			"rotation":[
				0.7071070671081543,
				0,
				0,
				0.7071065902709961
			],
			"scale":[
				8.200591087341309,
				74.59026336669922,
				8.200591087341309
			],
			"translation":[
				-1.15566885471344,
				-1.1549108028411865,
				1.4992270469665527
			]
		},
		{
			"mesh":5,
			"name":"Curve.058",
			"rotation":[
				0.7071070671081543,
				0,
				0,
				0.7071065902709961
			],
			"scale":[
				8.200591087341309,
				74.59026336669922,
				8.200591087341309
			],
			"translation":[
				-1.15566885471344,
				-1.1549108028411865,
				1.4992270469665527
			]
		},
		{
			"mesh":6,
			"name":"Curve.059",
			"rotation":[
				0.7071070671081543,
				0,
				0,
				0.7071065902709961
			],
			"scale":[
				8.200591087341309,
				74.59026336669922,
				8.200591087341309
			],
			"translation":[
				-1.15566885471344,
				-1.1549108028411865,
				1.4992270469665527
			]
		},
		{
			"mesh":7,
			"name":"Curve.060",
			"rotation":[
				0.7071070671081543,
				0,
				0,
				0.7071065902709961
			],
			"scale":[
				8.200591087341309,
				74.59026336669922,
				8.200591087341309
			],
			"translation":[
				-1.15566885471344,
				-1.1549108028411865,
				1.4992270469665527
			]
		},
		{
			"mesh":8,
			"name":"Curve.061",
			"rotation":[
				0.7071070671081543,
				0,
				0,
				0.7071065902709961
			],
			"scale":[
				8.200591087341309,
				74.59026336669922,
				8.200591087341309
			],
			"translation":[
				-1.15566885471344,
				-1.1549108028411865,
				1.4992270469665527
			]
		},
		{
			"children":[
				0,
				1,
				2,
				3,
				4,
				5,
				6,
				7,
				8
			],
			"mesh":9,
			"name":"Cube.092",
			"scale":[
				1.0794594287872314,
				1.0794594287872314,
				0.1186777800321579
			]
		}
	],
	"materials":[
		{
			"doubleSided":true,
			"name":"Material.076",
			"pbrMetallicRoughness":{
				"metallicFactor":0,
				"roughnessFactor":0
			}
		},
		{
			"doubleSided":true,
			"name":"Material.077",
			"pbrMetallicRoughness":{
				"baseColorFactor":[
					0,
					0,
					0,
					1
				],
				"metallicFactor":0,
				"roughnessFactor":0.4000000059604645
			}
		}
	],
	"meshes":[
		{
			"name":"Cube.091",
			"primitives":[
				{
					"attributes":{
						"POSITION":0,
						"NORMAL":1,
						"TEXCOORD_0":2
					},
					"indices":3,
					"material":0
				}
			]
		},
		{
			"name":"Curve.054",
			"primitives":[
				{
					"attributes":{
						"POSITION":4,
						"NORMAL":5,
						"TEXCOORD_0":6
					},
					"indices":7,
					"material":1
				}
			]
		},
		{
			"name":"Curve.055",
			"primitives":[
				{
					"attributes":{
						"POSITION":8,
						"NORMAL":9,
						"TEXCOORD_0":10
					},
					"indices":11,
					"material":1
				}
			]
		},
		{
			"name":"Curve.056",
			"primitives":[
				{
					"attributes":{
						"POSITION":12,
						"NORMAL":13,
						"TEXCOORD_0":14
					},
					"indices":15,
					"material":1
				}
			]
		},
		{
			"name":"Curve.057",
			"primitives":[
				{
					"attributes":{
						"POSITION":16,
						"NORMAL":17,
						"TEXCOORD_0":18
					},
					"indices":19,
					"material":1
				}
			]
		},
		{
			"name":"Curve.058",
			"primitives":[
				{
					"attributes":{
						"POSITION":20,
						"NORMAL":21,
						"TEXCOORD_0":22
					},
					"indices":23,
					"material":1
				}
			]
		},
		{
			"name":"Curve.059",
			"primitives":[
				{
					"attributes":{
						"POSITION":24,
						"NORMAL":25,
						"TEXCOORD_0":26
					},
					"indices":27,
					"material":1
				}
			]
		},
		{
			"name":"Curve.060",
			"primitives":[
				{
					"attributes":{
						"POSITION":28,
						"NORMAL":29,
						"TEXCOORD_0":30
					},
					"indices":31,
					"material":1
				}
			]
		},
		{
			"name":"Curve.061",
			"primitives":[
				{
					"attributes":{
						"POSITION":32,
						"NORMAL":33,
						"TEXCOORD_0":34
					},
					"indices":35,
					"material":1
				}
			]
		},
		{
			"name":"Cube.092",
			"primitives":[
				{
					"attributes":{
						"POSITION":36,
						"NORMAL":37,
						"TEXCOORD_0":38
					},
					"indices":3,
					"material":0
				}
			]
		}
	],
	"accessors":[
		{
			"bufferView":0,
			"componentType":5126,
			"count":96,
			"max":[
				1,
				1,
				1
			],
			"min":[
				-1,
				-1,
				-1
			],
			"type":"VEC3"
		},
		{
			"bufferView":1,
			"componentType":5126,
			"count":96,
			"type":"VEC3"
		},
		{
			"bufferView":2,
			"componentType":5126,
			"count":96,
			"type":"VEC2"
		},
		{
			"bufferView":3,
			"componentType":5123,
			"count":564,
			"type":"SCALAR"
		},
		{
			"bufferView":4,
			"componentType":5126,
			"count":4050,
			"max":[
				0.2363799512386322,
				0.006000000052154064,
				-0.04818476736545563
			],
			"min":[
				0.04584803432226181,
				-0.006000000052154064,
				-0.23400281369686127
			],
			"type":"VEC3"
		},
		{
			"bufferView":5,
			"componentType":5126,
			"count":4050,
			"type":"VEC3"
		},
		{
			"bufferView":6,
			"componentType":5126,
			"count":4050,
			"type":"VEC2"
		},
		{
			"bufferView":7,
			"componentType":5123,
			"count":20724,
			"type":"SCALAR"
		},
		{
			"bufferView":8,
			"componentType":5126,
			"count":772,
			"max":[
				0.08362668007612228,
				0.006000000052154064,
				-0.09622778743505478
			],
			"min":[
				0.07902736216783524,
				-0.006000000052154064,
				-0.1002756878733635
			],
			"type":"VEC3"
		},
		{
			"bufferView":9,
			"componentType":5126,
			"count":772,
			"type":"VEC3"
		},
		{
			"bufferView":10,
			"componentType":5126,
			"count":772,
			"type":"VEC2"
		},
		{
			"bufferView":11,
			"componentType":5123,
			"count":3876,
			"type":"SCALAR"
		},
		{
			"bufferView":12,
			"componentType":5126,
			"count":684,
			"max":[
				0.08764488995075226,
				0.006000000052154064,
				-0.0922093465924263
			],
			"min":[
				0.08288728445768356,
				-0.006000000052154064,
				-0.0970470979809761
			],
			"type":"VEC3"
		},
		{
			"bufferView":13,
			"componentType":5126,
			"count":684,
			"type":"VEC3"
		},
		{
			"bufferView":14,
			"componentType":5126,
			"count":684,
			"type":"VEC2"
		},
		{
			"bufferView":15,
			"componentType":5123,
			"count":3444,
			"type":"SCALAR"
		},
		{
			"bufferView":16,
			"componentType":5126,
			"count":824,
			"max":[
				0.0915340855717659,
				0.006000000052154064,
				-0.08683931827545166
			],
			"min":[
				0.0865456834435463,
				-0.006000000052154064,
				-0.09224256128072739
			],
			"type":"VEC3"
		},
		{
			"bufferView":17,
			"componentType":5126,
			"count":824,
			"type":"VEC3"
		},
		{
			"bufferView":18,
			"componentType":5126,
			"count":824,
			"type":"VEC2"
		},
		{
			"bufferView":19,
			"componentType":5123,
			"count":4164,
			"type":"SCALAR"
		},
		{
			"bufferView":20,
			"componentType":5126,
			"count":684,
			"max":[
				0.09647070616483688,
				0.006000000052154064,
				-0.08141517639160156
			],
			"min":[
				0.09094969928264618,
				-0.006000000052154064,
				-0.08687065541744232
			],
			"type":"VEC3"
		},
		{
			"bufferView":21,
			"componentType":5126,
			"count":684,
			"type":"VEC3"
		},
		{
			"bufferView":22,
			"componentType":5126,
			"count":684,
			"type":"VEC2"
		},
		{
			"bufferView":23,
			"componentType":5123,
			"count":3444,
			"type":"SCALAR"
		},
		{
			"bufferView":24,
			"componentType":5126,
			"count":684,
			"max":[
				0.10324157774448395,
				0.006000000052154064,
				-0.07783527672290802
			],
			"min":[
				0.09726450592279434,
				-0.006000000052154064,
				-0.08277322351932526
			],
			"type":"VEC3"
		},
		{
			"bufferView":25,
			"componentType":5126,
			"count":684,
			"type":"VEC3"
		},
		{
			"bufferView":26,
			"componentType":5126,
			"count":684,
			"type":"VEC2"
		},
		{
			"bufferView":27,
			"componentType":5123,
			"count":3444,
			"type":"SCALAR"
		},
		{
			"bufferView":28,
			"componentType":5126,
			"count":684,
			"max":[
				0.11092258244752884,
				0.006000000052154064,
				-0.0767139196395874
			],
			"min":[
				0.10486184060573578,
				-0.006000000052154064,
				-0.08152598887681961
			],
			"type":"VEC3"
		},
		{
			"bufferView":29,
			"componentType":5126,
			"count":684,
			"type":"VEC3"
		},
		{
			"bufferView":30,
			"componentType":5126,
			"count":684,
			"type":"VEC2"
		},
		{
			"bufferView":31,
			"componentType":5123,
			"count":3444,
			"type":"SCALAR"
		},
		{
			"bufferView":32,
			"componentType":5126,
			"count":768,
			"max":[
				0.11811599880456924,
				0.006000000052154064,
				-0.07757686078548431
			],
			"min":[
				0.11205671727657318,
				-0.006000000052154064,
				-0.08245041966438293
			],
			"type":"VEC3"
		},
		{
			"bufferView":33,
			"componentType":5126,
			"count":768,
			"type":"VEC3"
		},
		{
			"bufferView":34,
			"componentType":5126,
			"count":768,
			"type":"VEC2"
		},
		{
			"bufferView":35,
			"componentType":5123,
			"count":3876,
			"type":"SCALAR"
		},
		{
			"bufferView":36,
			"componentType":5126,
			"count":96,
			"max":[
				1,
				1,
				1
			],
			"min":[
				-1,
				-1,
				-1
			],
			"type":"VEC3"
		},
		{
			"bufferView":37,
			"componentType":5126,
			"count":96,
			"type":"VEC3"
		},
		{
			"bufferView":38,
			"componentType":5126,
			"count":96,
			"type":"VEC2"
		}
	],
	"bufferViews":[
		{
			"buffer":0,
			"byteLength":1152,
			"byteOffset":0,
			"target":34962
		},
		{
			"buffer":0,
			"byteLength":1152,
			"byteOffset":1152,
			"target":34962
		},
		{
			"buffer":0,
			"byteLength":768,
			"byteOffset":2304,
			"target":34962
		},
		{
			"buffer":0,
			"byteLength":1128,
			"byteOffset":3072,
			"target":34963
		},
		{
			"buffer":0,
			"byteLength":48600,
			"byteOffset":4200,
			"target":34962
		},
		{
			"buffer":0,
			"byteLength":48600,
			"byteOffset":52800,
			"target":34962
		},
		{
			"buffer":0,
			"byteLength":32400,
			"byteOffset":101400,
			"target":34962
		},
		{
			"buffer":0,
			"byteLength":41448,
			"byteOffset":133800,
			"target":34963
		},
		{
			"buffer":0,
			"byteLength":9264,
			"byteOffset":175248,
			"target":34962
		},
		{
			"buffer":0,
			"byteLength":9264,
			"byteOffset":184512,
			"target":34962
		},
		{
			"buffer":0,
			"byteLength":6176,
			"byteOffset":193776,
			"target":34962
		},
		{
			"buffer":0,
			"byteLength":7752,
			"byteOffset":199952,
			"target":34963
		},
		{
			"buffer":0,
			"byteLength":8208,
			"byteOffset":207704,
			"target":34962
		},
		{
			"buffer":0,
			"byteLength":8208,
			"byteOffset":215912,
			"target":34962
		},
		{
			"buffer":0,
			"byteLength":5472,
			"byteOffset":224120,
			"target":34962
		},
		{
			"buffer":0,
			"byteLength":6888,
			"byteOffset":229592,
			"target":34963
		},
		{
			"buffer":0,
			"byteLength":9888,
			"byteOffset":236480,
			"target":34962
		},
		{
			"buffer":0,
			"byteLength":9888,
			"byteOffset":246368,
			"target":34962
		},
		{
			"buffer":0,
			"byteLength":6592,
			"byteOffset":256256,
			"target":34962
		},
		{
			"buffer":0,
			"byteLength":8328,
			"byteOffset":262848,
			"target":34963
		},
		{
			"buffer":0,
			"byteLength":8208,
			"byteOffset":271176,
			"target":34962
		},
		{
			"buffer":0,
			"byteLength":8208,
			"byteOffset":279384,
			"target":34962
		},
		{
			"buffer":0,
			"byteLength":5472,
			"byteOffset":287592,
			"target":34962
		},
		{
			"buffer":0,
			"byteLength":6888,
			"byteOffset":293064,
			"target":34963
		},
		{
			"buffer":0,
			"byteLength":8208,
			"byteOffset":299952,
			"target":34962
		},
		{
			"buffer":0,
			"byteLength":8208,
			"byteOffset":308160,
			"target":34962
		},
		{
			"buffer":0,
			"byteLength":5472,
			"byteOffset":316368,
			"target":34962
		},
		{
			"buffer":0,
			"byteLength":6888,
			"byteOffset":321840,
			"target":34963
		},
		{
			"buffer":0,
			"byteLength":8208,
			"byteOffset":328728,
			"target":34962
		},
		{
			"buffer":0,
			"byteLength":8208,
			"byteOffset":336936,
			"target":34962
		},
		{
			"buffer":0,
			"byteLength":5472,
			"byteOffset":345144,
			"target":34962
		},
		{
			"buffer":0,
			"byteLength":6888,
			"byteOffset":350616,
			"target":34963
		},
		{
			"buffer":0,
			"byteLength":9216,
			"byteOffset":357504,
			"target":34962
		},
		{
			"buffer":0,
			"byteLength":9216,
			"byteOffset":366720,
			"target":34962
		},
		{
			"buffer":0,
			"byteLength":6144,
			"byteOffset":375936,
			"target":34962
		},
		{
			"buffer":0,
			"byteLength":7752,
			"byteOffset":382080,
			"target":34963
		},
		{
			"buffer":0,
			"byteLength":1152,
			"byteOffset":389832,
			"target":34962
		},
		{
			"buffer":0,
			"byteLength":1152,
			"byteOffset":390984,
			"target":34962
		},
		{
			"buffer":0,
			"byteLength":768,
			"byteOffset":392136,
			"target":34962
		}
	],
	"buffers":[
		{
			"byteLength":392904,
			"uri":"github1.bin"
		}
	]
}
