{
	"asset":{
		"generator":"Khronos glTF Blender I/O v4.1.63",
		"version":"2.0"
	},
	"scene":0,
	"scenes":[
		{
			"name":"Scene",
			"nodes":[
				0,
				1,
				2,
				3
			]
		}
	],
	"nodes":[
		{
			"mesh":0,
			"name":"Cube",
			"scale":[
				2.725461959838867,
				2.725461959838867,
				0.5590789914131165
			],
			"translation":[
				-0.0136919766664505,
				-0.012916386127471924,
				-0.2972134053707123
			]
		},
		{
			"mesh":1,
			"name":"Curve.001",
			"rotation":[
				0.7071068286895752,
				0,
				0,
				0.7071068286895752
			],
			"scale":[
				708.90087890625,
				512.87255859375,
				708.90087890625
			],
			"translation":[
				-0.1575719565153122,
				-0.21916303038597107,
				0.44742730259895325
			]
		},
		{
			"name":"Empty",
			"translation":[
				-0.20607750117778778,
				15.618734359741211,
				0.1252729296684265
			]
		},
		{
			"name":"Empty.001",
			"rotation":[
				0,
				-0.4806154668331146,
				0,
				0.8769314289093018
			],
			"translation":[
				-0.20607750117778778,
				15.618734359741211,
				0.1252729296684265
			]
		}
	],
	"materials":[
		{
			"doubleSided":true,
			"name":"Material.001",
			"pbrMetallicRoughness":{
				"metallicFactor":0,
				"roughnessFactor":0.5
			}
		},
		{
			"doubleSided":true,
			"name":"Material",
			"pbrMetallicRoughness":{
				"baseColorFactor":[
					0,
					0,
					0,
					1
				],
				"metallicFactor":0,
				"roughnessFactor":0.5
			}
		}
	],
	"meshes":[
		{
			"name":"Cube.001",
			"primitives":[
				{
					"attributes":{
						"POSITION":0,
						"NORMAL":1,
						"TEXCOORD_0":2
					},
					"indices":3,
					"material":0
				}
			]
		},
		{
			"name":"Curve.001",
			"primitives":[
				{
					"attributes":{
						"POSITION":4,
						"NORMAL":5,
						"TEXCOORD_0":6
					},
					"indices":7,
					"material":1
				}
			]
		}
	],
	"accessors":[
		{
			"bufferView":0,
			"componentType":5126,
			"count":39,
			"max":[
				1,
				1,
				1
			],
			"min":[
				-1,
				-1,
				-1
			],
			"type":"VEC3"
		},
		{
			"bufferView":1,
			"componentType":5126,
			"count":39,
			"type":"VEC3"
		},
		{
			"bufferView":2,
			"componentType":5126,
			"count":39,
			"type":"VEC2"
		},
		{
			"bufferView":3,
			"componentType":5123,
			"count":144,
			"type":"SCALAR"
		},
		{
			"bufferView":4,
			"componentType":5126,
			"count":1948,
			"max":[
				0.00249559641815722,
				0,
				0.0017180792056024075
			],
			"min":[
				-0.002020051470026374,
				-0.0012364829890429974,
				-0.0027023055590689182
			],
			"type":"VEC3"
		},
		{
			"bufferView":5,
			"componentType":5126,
			"count":1948,
			"type":"VEC3"
		},
		{
			"bufferView":6,
			"componentType":5126,
			"count":1948,
			"type":"VEC2"
		},
		{
			"bufferView":7,
			"componentType":5123,
			"count":3876,
			"type":"SCALAR"
		}
	],
	"bufferViews":[
		{
			"buffer":0,
			"byteLength":468,
			"byteOffset":0,
			"target":34962
		},
		{
			"buffer":0,
			"byteLength":468,
			"byteOffset":468,
			"target":34962
		},
		{
			"buffer":0,
			"byteLength":312,
			"byteOffset":936,
			"target":34962
		},
		{
			"buffer":0,
			"byteLength":288,
			"byteOffset":1248,
			"target":34963
		},
		{
			"buffer":0,
			"byteLength":23376,
			"byteOffset":1536,
			"target":34962
		},
		{
			"buffer":0,
			"byteLength":23376,
			"byteOffset":24912,
			"target":34962
		},
		{
			"buffer":0,
			"byteLength":15584,
			"byteOffset":48288,
			"target":34962
		},
		{
			"buffer":0,
			"byteLength":7752,
			"byteOffset":63872,
			"target":34963
		}
	],
	"buffers":[
		{
			"byteLength":71624,
			"uri":"github.bin"
		}
	]
}
